<svg width="24" height="24" viewBox="0 0 24 24" fill="none" xmlns="http://www.w3.org/2000/svg">
<path d="M2.29289 2.29273C2.65901 1.92662 3.23801 1.90402 3.63078 2.22437L3.70696 2.29273L11.9999 10.5857L20.2929 2.29273L20.3691 2.22437C20.7618 1.90402 21.3408 1.92662 21.707 2.29273C22.0731 2.65885 22.0957 3.23785 21.7753 3.63063L21.707 3.7068L13.414 11.9998L21.707 20.2927L21.7753 20.3689C22.0957 20.7617 22.0731 21.3407 21.707 21.7068C21.3408 22.0729 20.7618 22.0955 20.3691 21.7752L20.2929 21.7068L11.9999 13.4138L3.70696 21.7068C3.31643 22.0973 2.68342 22.0973 2.29289 21.7068C1.90237 21.3163 1.90237 20.6833 2.29289 20.2927L10.5859 11.9998L2.29289 3.7068L2.22453 3.63063C1.90418 3.23785 1.92678 2.65885 2.29289 2.29273Z" fill="#BCACA1"/>
</svg>
