<svg width="24" height="24" viewBox="0 0 24 24" fill="none" xmlns="http://www.w3.org/2000/svg">
<g opacity="0.5">
<path d="M12 8.75C11.138 8.75 10.3114 9.09241 9.7019 9.7019C9.09241 10.3114 8.75 11.138 8.75 12C8.75 12.862 9.09241 13.6886 9.7019 14.2981C10.3114 14.9076 11.138 15.25 12 15.25C12.862 15.25 13.6886 14.9076 14.2981 14.2981C14.9076 13.6886 15.25 12.862 15.25 12C15.25 11.138 14.9076 10.3114 14.2981 9.7019C13.6886 9.09241 12.862 8.75 12 8.75Z" fill="#0D0D0D"/>
<path fill-rule="evenodd" clip-rule="evenodd" d="M6.77061 3.08177C10.2466 2.6967 13.7546 2.6967 17.2306 3.08177C19.1296 3.29377 20.6606 4.78877 20.8836 6.69477C21.2955 10.2194 21.2955 13.7801 20.8836 17.3048C20.6606 19.2108 19.1296 20.7058 17.2316 20.9188C13.7552 21.3039 10.247 21.3039 6.77061 20.9188C4.87161 20.7058 3.34061 19.2108 3.11761 17.3058C2.70559 13.7808 2.70559 10.2198 3.11761 6.69477C3.34061 4.78877 4.87161 3.29377 6.77061 3.08177ZM17.0006 5.99977C16.7354 5.99977 16.481 6.10513 16.2935 6.29267C16.106 6.4802 16.0006 6.73456 16.0006 6.99977C16.0006 7.26499 16.106 7.51934 16.2935 7.70688C16.481 7.89441 16.7354 7.99977 17.0006 7.99977C17.2658 7.99977 17.5202 7.89441 17.7077 7.70688C17.8953 7.51934 18.0006 7.26499 18.0006 6.99977C18.0006 6.73456 17.8953 6.4802 17.7077 6.29267C17.5202 6.10513 17.2658 5.99977 17.0006 5.99977ZM7.25061 11.9998C7.25061 10.74 7.75105 9.53181 8.64185 8.64102C9.53265 7.75022 10.7408 7.24977 12.0006 7.24977C13.2604 7.24977 14.4686 7.75022 15.3594 8.64102C16.2502 9.53181 16.7506 10.74 16.7506 11.9998C16.7506 13.2596 16.2502 14.4677 15.3594 15.3585C14.4686 16.2493 13.2604 16.7498 12.0006 16.7498C10.7408 16.7498 9.53265 16.2493 8.64185 15.3585C7.75105 14.4677 7.25061 13.2596 7.25061 11.9998Z" fill="#0D0D0D"/>
</g>
</svg>
