<svg width="24" height="24" viewBox="0 0 24 24" fill="none" xmlns="http://www.w3.org/2000/svg">
<path d="M16 1.99609H8C7.46957 1.99609 6.96086 2.20681 6.58579 2.58188C6.21071 2.95695 6 3.46566 6 3.99609V19.9961C6 20.5265 6.21071 21.0352 6.58579 21.4103C6.96086 21.7854 7.46957 21.9961 8 21.9961H16C16.5304 21.9961 17.0391 21.7854 17.4142 21.4103C17.7893 21.0352 18 20.5265 18 19.9961V3.99609C18 3.46566 17.7893 2.95695 17.4142 2.58188C17.0391 2.20681 16.5304 1.99609 16 1.99609ZM13 20.9961H11V19.9961H13V20.9961ZM16 18.9961H8V4.99609H16V18.9961Z" fill="#0D0D0D"/>
</svg>
