<svg width="44" height="44" viewBox="0 0 44 44" fill="none" xmlns="http://www.w3.org/2000/svg">
<path d="M22.0054 5.5C15.1168 5.5 13.1021 5.50711 12.7105 5.5396C11.2969 5.65714 10.4172 5.87979 9.45886 6.35704C8.72031 6.7239 8.13784 7.14912 7.56298 7.7452C6.51607 8.83226 5.88157 10.1696 5.65188 11.7594C5.54021 12.5311 5.50772 12.6885 5.50113 16.6306C5.49859 17.9446 5.50113 19.6739 5.50113 21.9935C5.50113 28.8784 5.50873 30.8916 5.54174 31.2825C5.65595 32.6585 5.87167 33.5242 6.32851 34.4711C7.20158 36.2837 8.86902 37.6445 10.8334 38.1522C11.5136 38.3274 12.2649 38.4238 13.2293 38.4695C13.6379 38.4873 17.8027 38.5 21.9701 38.5C26.1375 38.5 30.3048 38.4949 30.7033 38.4746C31.82 38.4221 32.4685 38.335 33.1855 38.1497C35.1626 37.6394 36.7996 36.299 37.6904 34.461C38.1383 33.5369 38.3655 32.6382 38.4683 31.3341C38.4906 31.0497 38.5 26.5164 38.5 21.9892C38.5 17.4612 38.4898 12.9363 38.4675 12.6519C38.3635 11.3268 38.1363 10.4357 37.6739 9.49384C37.2945 8.72284 36.8732 8.14706 36.2615 7.55836C35.1699 6.51547 33.8349 5.8808 32.2441 5.6513C31.4733 5.53985 31.3198 5.50685 27.3758 5.5H22.0054Z" fill="url(#paint0_radial_14673_37645)"/>
<path d="M22.0054 5.5C15.1168 5.5 13.1021 5.50711 12.7105 5.5396C11.2969 5.65714 10.4172 5.87979 9.45886 6.35704C8.72031 6.7239 8.13784 7.14912 7.56298 7.7452C6.51607 8.83226 5.88157 10.1696 5.65188 11.7594C5.54021 12.5311 5.50772 12.6885 5.50113 16.6306C5.49859 17.9446 5.50113 19.6739 5.50113 21.9935C5.50113 28.8784 5.50873 30.8916 5.54174 31.2825C5.65595 32.6585 5.87167 33.5242 6.32851 34.4711C7.20158 36.2837 8.86902 37.6445 10.8334 38.1522C11.5136 38.3274 12.2649 38.4238 13.2293 38.4695C13.6379 38.4873 17.8027 38.5 21.9701 38.5C26.1375 38.5 30.3048 38.4949 30.7033 38.4746C31.82 38.4221 32.4685 38.335 33.1855 38.1497C35.1626 37.6394 36.7996 36.299 37.6904 34.461C38.1383 33.5369 38.3655 32.6382 38.4683 31.3341C38.4906 31.0497 38.5 26.5164 38.5 21.9892C38.5 17.4612 38.4898 12.9363 38.4675 12.6519C38.3635 11.3268 38.1363 10.4357 37.6739 9.49384C37.2945 8.72284 36.8732 8.14706 36.2615 7.55836C35.1699 6.51547 33.8349 5.8808 32.2441 5.6513C31.4733 5.53985 31.3198 5.50685 27.3758 5.5H22.0054Z" fill="url(#paint1_radial_14673_37645)"/>
<path d="M22.0054 5.5C15.1168 5.5 13.1021 5.50711 12.7105 5.5396C11.2969 5.65714 10.4172 5.87979 9.45886 6.35704C8.72031 6.7239 8.13784 7.14912 7.56298 7.7452C6.51607 8.83226 5.88157 10.1696 5.65188 11.7594C5.54021 12.5311 5.50772 12.6885 5.50113 16.6306C5.49859 17.9446 5.50113 19.6739 5.50113 21.9935C5.50113 28.8784 5.50873 30.8916 5.54174 31.2825C5.65595 32.6585 5.87167 33.5242 6.32851 34.4711C7.20158 36.2837 8.86902 37.6445 10.8334 38.1522C11.5136 38.3274 12.2649 38.4238 13.2293 38.4695C13.6379 38.4873 17.8027 38.5 21.9701 38.5C26.1375 38.5 30.3048 38.4949 30.7033 38.4746C31.82 38.4221 32.4685 38.335 33.1855 38.1497C35.1626 37.6394 36.7996 36.299 37.6904 34.461C38.1383 33.5369 38.3655 32.6382 38.4683 31.3341C38.4906 31.0497 38.5 26.5164 38.5 21.9892C38.5 17.4612 38.4898 12.9363 38.4675 12.6519C38.3635 11.3268 38.1363 10.4357 37.6739 9.49384C37.2945 8.72284 36.8732 8.14706 36.2615 7.55836C35.1699 6.51547 33.8349 5.8808 32.2441 5.6513C31.4733 5.53985 31.3198 5.50685 27.3758 5.5H22.0054Z" fill="url(#paint2_radial_14673_37645)"/>
<path d="M22.0054 5.5C15.1168 5.5 13.1021 5.50711 12.7105 5.5396C11.2969 5.65714 10.4172 5.87979 9.45886 6.35704C8.72031 6.7239 8.13784 7.14912 7.56298 7.7452C6.51607 8.83226 5.88157 10.1696 5.65188 11.7594C5.54021 12.5311 5.50772 12.6885 5.50113 16.6306C5.49859 17.9446 5.50113 19.6739 5.50113 21.9935C5.50113 28.8784 5.50873 30.8916 5.54174 31.2825C5.65595 32.6585 5.87167 33.5242 6.32851 34.4711C7.20158 36.2837 8.86902 37.6445 10.8334 38.1522C11.5136 38.3274 12.2649 38.4238 13.2293 38.4695C13.6379 38.4873 17.8027 38.5 21.9701 38.5C26.1375 38.5 30.3048 38.4949 30.7033 38.4746C31.82 38.4221 32.4685 38.335 33.1855 38.1497C35.1626 37.6394 36.7996 36.299 37.6904 34.461C38.1383 33.5369 38.3655 32.6382 38.4683 31.3341C38.4906 31.0497 38.5 26.5164 38.5 21.9892C38.5 17.4612 38.4898 12.9363 38.4675 12.6519C38.3635 11.3268 38.1363 10.4357 37.6739 9.49384C37.2945 8.72284 36.8732 8.14706 36.2615 7.55836C35.1699 6.51547 33.8349 5.8808 32.2441 5.6513C31.4733 5.53985 31.3198 5.50685 27.3758 5.5H22.0054Z" fill="url(#paint3_radial_14673_37645)"/>
<path d="M22.007 9.73828C18.6748 9.73828 18.2566 9.75284 16.9478 9.81235C15.6416 9.87212 14.75 10.0788 13.9699 10.382C13.1629 10.6951 12.4783 11.114 11.7964 11.7957C11.1139 12.4772 10.6946 13.1613 10.3802 13.9674C10.076 14.7472 9.86899 15.6384 9.8102 16.9431C9.75167 18.2509 9.73633 18.6691 9.73633 21.9988C9.73633 25.3286 9.75116 25.7452 9.81045 27.053C9.87053 28.3582 10.0773 29.2491 10.3805 30.0287C10.6941 30.8351 11.1133 31.5191 11.7956 32.2006C12.4773 32.8826 13.1619 33.3025 13.9683 33.6157C14.749 33.9189 15.6408 34.1255 16.9468 34.1853C18.2556 34.2448 18.6735 34.2593 22.0055 34.2593C25.3379 34.2593 25.7549 34.2448 27.0636 34.1853C28.3698 34.1255 29.2624 33.9189 30.0431 33.6157C30.8498 33.3025 31.5334 32.8826 32.2151 32.2006C32.8976 31.5191 33.3168 30.8351 33.6312 30.029C33.9328 29.2491 34.1399 28.358 34.2012 27.0532C34.26 25.7454 34.2754 25.3286 34.2754 21.9988C34.2754 18.669 34.26 18.2512 34.2012 16.9434C34.1399 15.6381 33.9328 14.7472 33.6312 13.9677C33.3168 13.1613 32.8976 12.4772 32.2151 11.7957C31.5326 11.1138 30.8501 10.6949 30.0423 10.382C29.2601 10.0788 28.368 9.87212 27.0618 9.81235C25.7531 9.75284 25.3364 9.73828 22.0032 9.73828H22.007ZM20.9063 11.9477C21.233 11.9472 21.5975 11.9477 22.007 11.9477C25.283 11.9477 25.6713 11.9595 26.9649 12.0182C28.1612 12.0729 28.8105 12.2726 29.243 12.4404C29.8156 12.6627 30.2238 12.9283 30.653 13.3574C31.0824 13.7866 31.3483 14.1952 31.5712 14.7674C31.7391 15.1991 31.9393 15.8479 31.9937 17.0433C32.0525 18.3357 32.0653 18.724 32.0653 21.996C32.0653 25.268 32.0525 25.6563 31.9937 26.9488C31.939 28.1442 31.7391 28.7929 31.5712 29.2246C31.3488 29.7968 31.0824 30.2042 30.653 30.633C30.2236 31.0622 29.8159 31.3278 29.243 31.55C28.811 31.7186 28.1612 31.9178 26.9649 31.9725C25.6715 32.0313 25.283 32.044 22.007 32.044C18.7307 32.044 18.3425 32.0313 17.049 31.9725C15.8528 31.9173 15.2035 31.7176 14.7707 31.5498C14.1981 31.3276 13.7891 31.0619 13.3597 30.6328C12.9303 30.2037 12.6644 29.796 12.4415 29.2236C12.2736 28.7919 12.0734 28.1431 12.019 26.9477C11.9602 25.6553 11.9484 25.267 11.9484 21.9929C11.9484 18.7189 11.9602 18.3327 12.019 17.0402C12.0737 15.8448 12.2736 15.196 12.4415 14.7638C12.6639 14.1917 12.9303 13.783 13.3597 13.3539C13.7891 12.9247 14.1981 12.6591 14.7707 12.4364C15.2032 12.2678 15.8528 12.0686 17.049 12.0136C18.1809 11.9625 18.6196 11.9472 20.9063 11.9447L20.9063 11.9477ZM28.5564 13.9835C27.7436 13.9835 27.0841 14.6417 27.0841 15.4542C27.0841 16.2665 27.7436 16.9255 28.5564 16.9255C29.3693 16.9255 30.0288 16.2665 30.0288 15.4542C30.0288 14.642 29.3693 13.983 28.5564 13.983L28.5564 13.9835ZM22.007 15.7025C18.5273 15.7025 15.706 18.5217 15.706 21.9988C15.706 25.476 18.5273 28.2938 22.007 28.2938C25.4867 28.2938 28.3069 25.476 28.3069 21.9988C28.3069 18.5217 25.4865 15.7025 22.0067 15.7025H22.007ZM22.007 17.912C24.2656 17.912 26.0969 19.7416 26.0969 21.9988C26.0969 24.2558 24.2656 26.0857 22.007 26.0857C19.7481 26.0857 17.9171 24.2558 17.9171 21.9988C17.9171 19.7416 19.7481 17.912 22.007 17.912Z" fill="white"/>
<path d="M22.0054 5.5C15.1168 5.5 13.1021 5.50711 12.7105 5.5396C11.2969 5.65714 10.4172 5.87979 9.45886 6.35704C8.72031 6.7239 8.13784 7.14912 7.56298 7.7452C6.51607 8.83226 5.88157 10.1696 5.65188 11.7594C5.54021 12.5311 5.50772 12.6885 5.50113 16.6306C5.49859 17.9446 5.50113 19.6739 5.50113 21.9935C5.50113 28.8784 5.50873 30.8916 5.54174 31.2825C5.65595 32.6585 5.87167 33.5242 6.32851 34.4711C7.20158 36.2837 8.86902 37.6445 10.8334 38.1522C11.5136 38.3274 12.2649 38.4238 13.2293 38.4695C13.6379 38.4873 17.8027 38.5 21.9701 38.5C26.1375 38.5 30.3048 38.4949 30.7033 38.4746C31.82 38.4221 32.4685 38.335 33.1855 38.1497C35.1626 37.6394 36.7996 36.299 37.6904 34.461C38.1383 33.5369 38.3655 32.6382 38.4683 31.3341C38.4906 31.0497 38.5 26.5164 38.5 21.9892C38.5 17.4612 38.4898 12.9363 38.4675 12.6519C38.3635 11.3268 38.1363 10.4357 37.6739 9.49384C37.2945 8.72284 36.8732 8.14706 36.2615 7.55836C35.1699 6.51547 33.8349 5.8808 32.2441 5.6513C31.4733 5.53985 31.3198 5.50685 27.3758 5.5H22.0054Z" fill="url(#paint4_radial_14673_37645)"/>
<path d="M22.0054 5.5C15.1168 5.5 13.1021 5.50711 12.7105 5.5396C11.2969 5.65714 10.4172 5.87979 9.45886 6.35704C8.72031 6.7239 8.13784 7.14912 7.56298 7.7452C6.51607 8.83226 5.88157 10.1696 5.65188 11.7594C5.54021 12.5311 5.50772 12.6885 5.50113 16.6306C5.49859 17.9446 5.50113 19.6739 5.50113 21.9935C5.50113 28.8784 5.50873 30.8916 5.54174 31.2825C5.65595 32.6585 5.87167 33.5242 6.32851 34.4711C7.20158 36.2837 8.86902 37.6445 10.8334 38.1522C11.5136 38.3274 12.2649 38.4238 13.2293 38.4695C13.6379 38.4873 17.8027 38.5 21.9701 38.5C26.1375 38.5 30.3048 38.4949 30.7033 38.4746C31.82 38.4221 32.4685 38.335 33.1855 38.1497C35.1626 37.6394 36.7996 36.299 37.6904 34.461C38.1383 33.5369 38.3655 32.6382 38.4683 31.3341C38.4906 31.0497 38.5 26.5164 38.5 21.9892C38.5 17.4612 38.4898 12.9363 38.4675 12.6519C38.3635 11.3268 38.1363 10.4357 37.6739 9.49384C37.2945 8.72284 36.8732 8.14706 36.2615 7.55836C35.1699 6.51547 33.8349 5.8808 32.2441 5.6513C31.4733 5.53985 31.3198 5.50685 27.3758 5.5H22.0054Z" fill="url(#paint5_radial_14673_37645)"/>
<path d="M22.0054 5.5C15.1168 5.5 13.1021 5.50711 12.7105 5.5396C11.2969 5.65714 10.4172 5.87979 9.45886 6.35704C8.72031 6.7239 8.13784 7.14912 7.56298 7.7452C6.51607 8.83226 5.88157 10.1696 5.65188 11.7594C5.54021 12.5311 5.50772 12.6885 5.50113 16.6306C5.49859 17.9446 5.50113 19.6739 5.50113 21.9935C5.50113 28.8784 5.50873 30.8916 5.54174 31.2825C5.65595 32.6585 5.87167 33.5242 6.32851 34.4711C7.20158 36.2837 8.86902 37.6445 10.8334 38.1522C11.5136 38.3274 12.2649 38.4238 13.2293 38.4695C13.6379 38.4873 17.8027 38.5 21.9701 38.5C26.1375 38.5 30.3048 38.4949 30.7033 38.4746C31.82 38.4221 32.4685 38.335 33.1855 38.1497C35.1626 37.6394 36.7996 36.299 37.6904 34.461C38.1383 33.5369 38.3655 32.6382 38.4683 31.3341C38.4906 31.0497 38.5 26.5164 38.5 21.9892C38.5 17.4612 38.4898 12.9363 38.4675 12.6519C38.3635 11.3268 38.1363 10.4357 37.6739 9.49384C37.2945 8.72284 36.8732 8.14706 36.2615 7.55836C35.1699 6.51547 33.8349 5.8808 32.2441 5.6513C31.4733 5.53985 31.3198 5.50685 27.3758 5.5H22.0054Z" fill="url(#paint6_radial_14673_37645)"/>
<path d="M22.0054 5.5C15.1168 5.5 13.1021 5.50711 12.7105 5.5396C11.2969 5.65714 10.4172 5.87979 9.45886 6.35704C8.72031 6.7239 8.13784 7.14912 7.56298 7.7452C6.51607 8.83226 5.88157 10.1696 5.65188 11.7594C5.54021 12.5311 5.50772 12.6885 5.50113 16.6306C5.49859 17.9446 5.50113 19.6739 5.50113 21.9935C5.50113 28.8784 5.50873 30.8916 5.54174 31.2825C5.65595 32.6585 5.87167 33.5242 6.32851 34.4711C7.20158 36.2837 8.86902 37.6445 10.8334 38.1522C11.5136 38.3274 12.2649 38.4238 13.2293 38.4695C13.6379 38.4873 17.8027 38.5 21.9701 38.5C26.1375 38.5 30.3048 38.4949 30.7033 38.4746C31.82 38.4221 32.4685 38.335 33.1855 38.1497C35.1626 37.6394 36.7996 36.299 37.6904 34.461C38.1383 33.5369 38.3655 32.6382 38.4683 31.3341C38.4906 31.0497 38.5 26.5164 38.5 21.9892C38.5 17.4612 38.4898 12.9363 38.4675 12.6519C38.3635 11.3268 38.1363 10.4357 37.6739 9.49384C37.2945 8.72284 36.8732 8.14706 36.2615 7.55836C35.1699 6.51547 33.8349 5.8808 32.2441 5.6513C31.4733 5.53985 31.3198 5.50685 27.3758 5.5H22.0054Z" fill="url(#paint7_radial_14673_37645)"/>
<path d="M22.007 9.73828C18.6748 9.73828 18.2566 9.75284 16.9478 9.81235C15.6416 9.87212 14.75 10.0788 13.9699 10.382C13.1629 10.6951 12.4783 11.114 11.7964 11.7957C11.1139 12.4772 10.6946 13.1613 10.3802 13.9674C10.076 14.7472 9.86899 15.6384 9.8102 16.9431C9.75167 18.2509 9.73633 18.6691 9.73633 21.9988C9.73633 25.3286 9.75116 25.7452 9.81045 27.053C9.87053 28.3582 10.0773 29.2491 10.3805 30.0287C10.6941 30.8351 11.1133 31.5191 11.7956 32.2006C12.4773 32.8826 13.1619 33.3025 13.9683 33.6157C14.749 33.9189 15.6408 34.1255 16.9468 34.1853C18.2556 34.2448 18.6735 34.2593 22.0055 34.2593C25.3379 34.2593 25.7549 34.2448 27.0636 34.1853C28.3698 34.1255 29.2624 33.9189 30.0431 33.6157C30.8498 33.3025 31.5334 32.8826 32.2151 32.2006C32.8976 31.5191 33.3168 30.8351 33.6312 30.029C33.9328 29.2491 34.1399 28.358 34.2012 27.0532C34.26 25.7454 34.2754 25.3286 34.2754 21.9988C34.2754 18.669 34.26 18.2512 34.2012 16.9434C34.1399 15.6381 33.9328 14.7472 33.6312 13.9677C33.3168 13.1613 32.8976 12.4772 32.2151 11.7957C31.5326 11.1138 30.8501 10.6949 30.0423 10.382C29.2601 10.0788 28.368 9.87212 27.0618 9.81235C25.7531 9.75284 25.3364 9.73828 22.0032 9.73828H22.007ZM20.9063 11.9477C21.233 11.9472 21.5975 11.9477 22.007 11.9477C25.283 11.9477 25.6713 11.9595 26.9649 12.0182C28.1612 12.0729 28.8105 12.2726 29.243 12.4404C29.8156 12.6627 30.2238 12.9283 30.653 13.3574C31.0824 13.7866 31.3483 14.1952 31.5712 14.7674C31.7391 15.1991 31.9393 15.8479 31.9937 17.0433C32.0525 18.3357 32.0653 18.724 32.0653 21.996C32.0653 25.268 32.0525 25.6563 31.9937 26.9488C31.939 28.1442 31.7391 28.7929 31.5712 29.2246C31.3488 29.7968 31.0824 30.2042 30.653 30.633C30.2236 31.0622 29.8159 31.3278 29.243 31.55C28.811 31.7186 28.1612 31.9178 26.9649 31.9725C25.6715 32.0313 25.283 32.044 22.007 32.044C18.7307 32.044 18.3425 32.0313 17.049 31.9725C15.8528 31.9173 15.2035 31.7176 14.7707 31.5498C14.1981 31.3276 13.7891 31.0619 13.3597 30.6328C12.9303 30.2037 12.6644 29.796 12.4415 29.2236C12.2736 28.7919 12.0734 28.1431 12.019 26.9477C11.9602 25.6553 11.9484 25.267 11.9484 21.9929C11.9484 18.7189 11.9602 18.3327 12.019 17.0402C12.0737 15.8448 12.2736 15.196 12.4415 14.7638C12.6639 14.1917 12.9303 13.783 13.3597 13.3539C13.7891 12.9247 14.1981 12.6591 14.7707 12.4364C15.2032 12.2678 15.8528 12.0686 17.049 12.0136C18.1809 11.9625 18.6196 11.9472 20.9063 11.9447L20.9063 11.9477ZM28.5564 13.9835C27.7436 13.9835 27.0841 14.6417 27.0841 15.4542C27.0841 16.2665 27.7436 16.9255 28.5564 16.9255C29.3693 16.9255 30.0288 16.2665 30.0288 15.4542C30.0288 14.642 29.3693 13.983 28.5564 13.983L28.5564 13.9835ZM22.007 15.7025C18.5273 15.7025 15.706 18.5217 15.706 21.9988C15.706 25.476 18.5273 28.2938 22.007 28.2938C25.4867 28.2938 28.3069 25.476 28.3069 21.9988C28.3069 18.5217 25.4865 15.7025 22.0067 15.7025H22.007ZM22.007 17.912C24.2656 17.912 26.0969 19.7416 26.0969 21.9988C26.0969 24.2558 24.2656 26.0857 22.007 26.0857C19.7481 26.0857 17.9171 24.2558 17.9171 21.9988C17.9171 19.7416 19.7481 17.912 22.007 17.912Z" fill="white"/>
<defs>
<radialGradient id="paint0_radial_14673_37645" cx="0" cy="0" r="1" gradientUnits="userSpaceOnUse" gradientTransform="translate(37.4344 20.9675) rotate(164.25) scale(21.0851 15.1908)">
<stop stop-color="#FF005F"/>
<stop offset="1" stop-color="#FC01D8"/>
</radialGradient>
<radialGradient id="paint1_radial_14673_37645" cx="0" cy="0" r="1" gradientUnits="userSpaceOnUse" gradientTransform="translate(14.2654 41.0417) rotate(-90) scale(26.3412 27.9475)">
<stop stop-color="#FFCC00"/>
<stop offset="0.1242" stop-color="#FFCC00"/>
<stop offset="0.5672" stop-color="#FE4A05"/>
<stop offset="0.6942" stop-color="#FF0F3F"/>
<stop offset="1" stop-color="#FE0657" stop-opacity="0"/>
</radialGradient>
<radialGradient id="paint2_radial_14673_37645" cx="0" cy="0" r="1" gradientUnits="userSpaceOnUse" gradientTransform="translate(22.8339 38.0346) rotate(-59.8703) scale(10.8923 14.1806)">
<stop stop-color="#FFCC00"/>
<stop offset="1" stop-color="#FFCC00" stop-opacity="0"/>
</radialGradient>
<radialGradient id="paint3_radial_14673_37645" cx="0" cy="0" r="1" gradientUnits="userSpaceOnUse" gradientTransform="translate(9.97739 6.84375) rotate(164.274) scale(20.8512 7.104)">
<stop stop-color="#780CFF"/>
<stop offset="1" stop-color="#820BFF" stop-opacity="0"/>
</radialGradient>
<radialGradient id="paint4_radial_14673_37645" cx="0" cy="0" r="1" gradientUnits="userSpaceOnUse" gradientTransform="translate(37.4344 20.9675) rotate(164.25) scale(21.0851 15.1908)">
<stop stop-color="#FF005F"/>
<stop offset="1" stop-color="#FC01D8"/>
</radialGradient>
<radialGradient id="paint5_radial_14673_37645" cx="0" cy="0" r="1" gradientUnits="userSpaceOnUse" gradientTransform="translate(14.2654 41.0417) rotate(-90) scale(26.3412 27.9475)">
<stop stop-color="#FFCC00"/>
<stop offset="0.1242" stop-color="#FFCC00"/>
<stop offset="0.5672" stop-color="#FE4A05"/>
<stop offset="0.6942" stop-color="#FF0F3F"/>
<stop offset="1" stop-color="#FE0657" stop-opacity="0"/>
</radialGradient>
<radialGradient id="paint6_radial_14673_37645" cx="0" cy="0" r="1" gradientUnits="userSpaceOnUse" gradientTransform="translate(22.8339 38.0346) rotate(-59.8703) scale(10.8923 14.1806)">
<stop stop-color="#FFCC00"/>
<stop offset="1" stop-color="#FFCC00" stop-opacity="0"/>
</radialGradient>
<radialGradient id="paint7_radial_14673_37645" cx="0" cy="0" r="1" gradientUnits="userSpaceOnUse" gradientTransform="translate(9.97739 6.84375) rotate(164.274) scale(20.8512 7.104)">
<stop stop-color="#780CFF"/>
<stop offset="1" stop-color="#820BFF" stop-opacity="0"/>
</radialGradient>
</defs>
</svg>
