<svg width="24" height="24" viewBox="0 0 24 24" fill="none" xmlns="http://www.w3.org/2000/svg">
<path fill-rule="evenodd" clip-rule="evenodd" d="M12.0017 21.183L12.7228 20.3704C13.5411 19.434 14.2775 18.543 14.932 17.6973L15.4725 16.9841C17.7301 13.9434 18.8588 11.5308 18.8588 9.74642C18.8588 5.93842 15.7891 2.85156 12.0017 2.85156C8.21425 2.85156 5.14453 5.93842 5.14453 9.74642C5.14453 11.5308 6.27329 13.9438 8.53082 16.9853L9.07139 17.6984C10.0057 18.8953 10.9831 20.0569 12.0017 21.183Z" stroke="#0D0D0D" stroke-width="2" stroke-linecap="round" stroke-linejoin="round"/>
<path d="M12.0017 12.5658C13.5796 12.5658 14.8588 11.2867 14.8588 9.70871C14.8588 8.13075 13.5796 6.85156 12.0017 6.85156C10.4237 6.85156 9.14453 8.13075 9.14453 9.70871C9.14453 11.2867 10.4237 12.5658 12.0017 12.5658Z" stroke="#0D0D0D" stroke-width="2" stroke-linecap="round" stroke-linejoin="round"/>
</svg>
