<svg width="110" height="24" viewBox="0 0 110 24" fill="none" xmlns="http://www.w3.org/2000/svg">
<g clip-path="url(#clip0_17069_14918)">
<path d="M96.8944 8.86553C96.8944 11.1449 95.5314 13.8818 92.4967 14.7516C90.077 15.4464 87.8125 15.1639 85.8764 13.4043C84.7774 12.4047 84.1826 11.125 84.0293 9.67024C83.6985 6.76076 85.612 3.98158 88.5159 3.30668C91.0247 2.71931 93.3333 3.15399 95.2026 5.02153C96.3016 6.12863 96.8521 7.49584 96.919 8.86553H96.8944ZM95.2227 9.49517C95.2227 8.06281 95.0251 7.25811 94.5636 6.36835C92.8919 3.19627 88.4717 2.91676 86.5803 5.8909C85.3701 7.78032 85.348 9.80005 86.3158 11.777C87.526 14.2513 90.6048 15.0565 92.9361 13.5366C94.5409 12.4942 95.1784 10.9295 95.2227 9.47478V9.49716V9.49468V9.49517Z" fill="#0D0D0D"/>
<path d="M100.213 5.86721V15.0527H99.3984V3C102.675 6.10444 105.91 9.14622 109.187 12.2507V3.08753H110.002V15.1174C106.725 12.0328 103.513 8.97115 100.213 5.86671V5.86721Z" fill="#0D0D0D"/>
<path d="M49.1221 14.0728V15.0501H41.5118C41.27 15.0501 41.2031 14.9849 41.2031 14.7452V3.0625H49.0778V4.01741H42.8306V8.25133H48.1764V9.07593H42.8306V14.0499H49.0778L49.1221 14.0723V14.0728Z" fill="#0D0D0D"/>
<path d="M32.1608 10.3158V15.0501H30.5781V3.0625H34.6253C35.8797 3.0625 36.9787 3.45242 37.8158 4.42971C39.3985 6.27686 38.6504 9.07643 36.3639 9.96867C35.7686 10.2084 35.1764 10.3163 34.5389 10.3163H32.1608V10.3158ZM32.1608 9.51359H34.2276C35.6796 9.44844 36.7786 8.38362 36.8898 6.86422C36.9787 5.69198 36.2945 4.23723 34.7339 3.95474C33.9637 3.80206 33.1512 3.86721 32.3805 3.84731C32.3136 3.84731 32.2498 3.84731 32.1829 3.86969V9.51608H32.1608V9.51359Z" fill="#0D0D0D"/>
<path d="M63.8084 14.0962H70.0778V15.0511H62.2031V3.08594H70.0557V4.02095H63.8084V8.27775H69.1744V9.07997H63.8084V14.0962Z" fill="#0D0D0D"/>
<path d="M71.7969 3.08842H82.7731V3.91303C82.7731 3.97818 82.6198 4.04283 82.5313 4.04283H78.111V15.0531H76.5062V4.04333H72.1282C71.8864 4.04333 71.7778 3.97818 71.8195 3.73846V3.08594H71.7974V3.08842H71.7969Z" fill="#0D0D0D"/>
<path d="M51.7369 3.08594H53.3196V14.0962H59.6312V14.9437C59.6312 15.0088 59.4779 15.0964 59.3894 15.0964H51.7565V3.08594H51.7344H51.7369Z" fill="#0D0D0D"/>
<path d="M109.571 19.4474C109.857 19.6682 110.001 19.9786 110.001 20.379C110.001 20.6495 109.936 20.8872 109.804 21.0931C109.674 21.299 109.491 21.4567 109.256 21.5671C109.021 21.6775 108.748 21.7327 108.436 21.7327C108.386 21.7327 108.269 21.7412 108.217 21.7372C108.165 21.7332 107.806 21.7332 107.7 21.7293V21.5452C107.723 21.5413 108.099 21.5442 108.111 21.5452C108.119 21.5452 108.19 21.5447 108.205 21.5447C108.471 21.5447 108.697 21.501 108.884 21.4134C109.07 21.3259 109.212 21.1971 109.308 21.028C109.404 20.8584 109.453 20.6575 109.453 20.4252C109.453 20.2118 109.408 20.0204 109.32 19.8508C109.231 19.6812 109.099 19.5459 108.921 19.4449C108.744 19.344 108.532 19.2937 108.286 19.2937H107.679L107.772 19.2022V22.7787C107.772 22.8473 107.775 22.9045 107.78 22.9502C107.786 22.996 107.796 23.0437 107.812 23.093V23.1159H107.234V23.093C107.242 23.0472 107.249 23.0005 107.254 22.9532C107.26 22.9055 107.263 22.8473 107.263 22.7792V19.4539C107.263 19.3853 107.26 19.3271 107.254 19.2798C107.249 19.2321 107.242 19.1853 107.234 19.1401V19.1172H108.355C108.878 19.1172 109.284 19.2276 109.571 19.4484V19.4474Z" fill="#0D0D0D"/>
<path d="M33.5652 22.9401V23.8488H33.4556C33.448 23.6165 33.4325 23.4519 33.4093 23.3544C33.3862 23.2574 33.3399 23.1933 33.2706 23.1629C33.2012 23.1326 33.082 23.1172 32.9126 23.1172H30.1057C29.9363 23.1172 29.8171 23.1321 29.7477 23.1629C29.6784 23.1933 29.6321 23.2574 29.609 23.3544C29.5859 23.4514 29.5708 23.616 29.5627 23.8488H29.4531V22.9401H33.5652ZM31.5697 19.0892C31.6487 19.0703 31.7206 19.0379 31.7864 18.9922L33.2419 23.0486H32.7165L31.3767 19.2608H31.4692L29.9906 23.0486H29.7824L31.3304 19.1175C31.4114 19.1175 31.4913 19.1081 31.5702 19.0892H31.5697Z" fill="#0D0D0D"/>
<path d="M36.4973 19.1187V19.1416C36.4782 19.1913 36.4656 19.2386 36.4596 19.2843C36.454 19.3301 36.451 19.3873 36.451 19.4559V22.5295H36.2891L38.9457 19.0898H39.0553C39.0478 19.1396 39.0407 19.1888 39.0352 19.2386C39.0297 19.2883 39.0266 19.348 39.0266 19.4186V22.7807C39.0266 22.8493 39.0297 22.9075 39.0352 22.9547C39.0407 23.0025 39.0478 23.0492 39.0553 23.0945V23.1174H38.4721V23.0945C38.4912 23.0452 38.5038 22.9975 38.5098 22.9517C38.5158 22.906 38.5184 22.8488 38.5184 22.7802V19.7066H38.6802L36.0237 23.1462H35.9141C35.9256 23.097 35.9332 23.0482 35.9372 23.0005C35.9412 22.9527 35.9427 22.8965 35.9427 22.8319V19.4554C35.9427 19.3868 35.9397 19.3286 35.9342 19.2813C35.9286 19.2336 35.9216 19.1868 35.9141 19.1416V19.1187H36.4973Z" fill="#0D0D0D"/>
<path d="M44.2376 23.1167V23.0824C44.2376 23.0635 44.2345 23.0356 44.229 22.9993C44.2235 22.963 44.2099 22.9048 44.1888 22.8252C44.1677 22.7452 44.136 22.6422 44.0933 22.5169L42.9786 19.2603H43.0827L41.864 22.5169C41.8138 22.6462 41.7776 22.7511 41.7544 22.8312C41.7313 22.9113 41.7177 22.9685 41.7142 23.0028C41.7102 23.0371 41.7087 23.064 41.7087 23.0829V23.1172H41.4141V23.0943C41.4216 23.0789 41.4342 23.0555 41.4518 23.0227C41.4689 22.9904 41.495 22.9322 41.5297 22.8486C41.5644 22.7651 41.6086 22.6527 41.6624 22.5114L42.9389 19.1175C43.0234 19.1175 43.1053 19.1081 43.1843 19.0892C43.2632 19.0703 43.3351 19.0379 43.401 18.9922L44.6081 22.5174C44.6543 22.6547 44.6936 22.7651 44.7262 22.8486C44.7589 22.9327 44.783 22.9904 44.7986 23.0227C44.8142 23.055 44.8253 23.0789 44.8333 23.0943V23.1172H44.2386L44.2376 23.1167Z" fill="#0D0D0D"/>
<path d="M49.6065 19.1172V19.3231H49.5895C49.5507 19.3156 49.5085 19.3097 49.4623 19.3062C49.416 19.3022 49.3602 19.2997 49.2948 19.2977C49.2295 19.2957 49.1505 19.2947 49.058 19.2947H47.7413L47.8338 19.2032V20.9857L47.7644 20.9171H49.1566V21.0941H47.7644L47.8338 21.0255V23.0308L47.7413 22.9393H49.4799C49.5492 22.9393 49.607 22.9363 49.6533 22.9308C49.6996 22.9249 49.7478 22.9144 49.7976 22.8995H49.8207V23.1169H47.2969V23.094C47.3084 23.0482 47.316 23.0015 47.32 22.9542C47.324 22.9065 47.3255 22.8483 47.3255 22.7802V19.4549C47.3255 19.3863 47.3235 19.3281 47.32 19.2808C47.316 19.2331 47.3084 19.1863 47.2969 19.1411V19.1182H49.6071L49.6065 19.1172Z" fill="#0D0D0D"/>
<path d="M54.6879 19.4474C54.9745 19.6682 55.1182 19.9786 55.1182 20.379C55.1182 20.6495 55.0529 20.8872 54.9217 21.0931C54.7909 21.299 54.6079 21.4567 54.3732 21.5671C54.1384 21.6775 53.8649 21.7327 53.5532 21.7327C53.5029 21.7327 53.3857 21.7412 53.3339 21.7372C53.2822 21.7332 52.9227 21.7332 52.8171 21.7293V21.5452C52.8402 21.5413 53.2163 21.5442 53.2284 21.5452C53.2364 21.5452 53.3073 21.5447 53.3224 21.5447C53.5878 21.5447 53.8141 21.501 54.0011 21.4134C54.1876 21.3259 54.3294 21.1971 54.4254 21.028C54.5215 20.8584 54.5697 20.6575 54.5697 20.4252C54.5697 20.2118 54.5255 20.0204 54.437 19.8508C54.3485 19.6812 54.2158 19.5459 54.0383 19.4449C53.8613 19.344 53.6492 19.2937 53.4028 19.2937H52.7965L52.889 19.2022V22.7787C52.889 22.8473 52.892 22.9045 52.8976 22.9502C52.9031 22.996 52.9136 23.0437 52.9292 23.093V23.1159H52.3516V23.093C52.3591 23.0472 52.3661 23.0005 52.3717 22.9532C52.3772 22.9055 52.3802 22.8473 52.3802 22.7792V19.4539C52.3802 19.3853 52.3772 19.3271 52.3717 19.2798C52.3661 19.2321 52.3591 19.1853 52.3516 19.1401V19.1172H53.4722C53.9956 19.1172 54.4013 19.2276 54.6879 19.4484V19.4474Z" fill="#0D0D0D"/>
<path d="M61.0417 20.2154H60.9321C60.8818 19.9946 60.7888 19.8041 60.6521 19.6439C60.5153 19.4838 60.3509 19.3629 60.1583 19.2814C59.9658 19.1993 59.7617 19.1585 59.546 19.1585C59.2609 19.1585 58.9884 19.2311 58.7285 19.3759C58.4686 19.5206 58.2569 19.7394 58.093 20.0329C57.9291 20.3263 57.8477 20.6824 57.8477 21.1012C57.8477 21.5199 57.9246 21.887 58.0789 22.1779C58.2328 22.4694 58.4339 22.6847 58.6822 22.8235C58.9306 22.9627 59.1971 23.0319 59.4821 23.0319C59.7054 23.0319 59.917 22.9901 60.1176 22.906C60.3177 22.8225 60.4912 22.7011 60.6375 22.5435C60.7838 22.3853 60.8818 22.1958 60.9321 21.975H61.0417V22.5519C60.8376 22.7538 60.5968 22.914 60.3197 23.0319C60.0427 23.1497 59.7461 23.2089 59.4304 23.2089C59.0412 23.2089 58.6843 23.1144 58.359 22.9259C58.0337 22.7374 57.7768 22.4813 57.5877 22.1575C57.3992 21.8338 57.3047 21.4796 57.3047 21.0947C57.3047 20.7097 57.3992 20.3556 57.5877 20.0319C57.7763 19.7081 58.0332 19.452 58.359 19.2635C58.6843 19.075 59.0412 18.9805 59.4304 18.9805C59.7461 18.9805 60.0427 19.0397 60.3197 19.1575C60.5968 19.2754 60.8376 19.4355 61.0417 19.6375V20.2144V20.2154Z" fill="#0D0D0D"/>
<path d="M64.3433 19.1172V19.1401C64.3277 19.1898 64.3172 19.237 64.3116 19.2828C64.3061 19.3286 64.3031 19.3858 64.3031 19.4544V20.9683H64.1935L65.5509 19.717C65.6625 19.618 65.7581 19.5295 65.837 19.4514C65.9159 19.3733 65.9758 19.3107 66.016 19.2629C66.0562 19.2152 66.0843 19.1744 66.0999 19.1401L66.1115 19.1172H66.4463V19.1341C66.4001 19.1644 66.3538 19.1997 66.3076 19.24C66.2613 19.2798 66.2075 19.3276 66.1457 19.3828C66.0838 19.438 66.013 19.5056 65.932 19.5857L65.7933 19.717L65.1693 20.2999V20.1969L66.3015 22.1281C66.4669 22.4136 66.6112 22.629 66.7349 22.7737C66.8581 22.9184 66.9581 23.0079 67.0351 23.0423V23.1278C66.8581 23.1507 66.6982 23.1298 66.5559 23.0651C66.4137 23.0005 66.2895 22.908 66.1834 22.7881C66.0773 22.6682 65.9742 22.5245 65.8742 22.3569L64.7882 20.5172H64.921L64.2453 21.1459L64.3031 21.02V22.7797C64.3031 22.8483 64.3061 22.9055 64.3116 22.9512C64.3172 22.997 64.3277 23.0447 64.3433 23.094V23.1169H63.7656V23.094C63.7732 23.0482 63.7802 23.0015 63.7857 22.9542C63.7913 22.9065 63.7943 22.8483 63.7943 22.7802V19.4549C63.7943 19.3863 63.7913 19.3281 63.7857 19.2808C63.7802 19.2331 63.7732 19.1863 63.7656 19.1411V19.1182H64.3433V19.1172Z" fill="#0D0D0D"/>
<path d="M69.8957 19.1187V19.1416C69.8766 19.1913 69.864 19.2386 69.858 19.2843C69.8525 19.3301 69.8494 19.3873 69.8494 19.4559V22.5295H69.6876L72.3441 19.0898H72.4537C72.4462 19.1396 72.4392 19.1888 72.4336 19.2386C72.4276 19.2883 72.4251 19.348 72.4251 19.4186V22.7807C72.4251 22.8493 72.4281 22.9075 72.4336 22.9547C72.4392 23.0025 72.4462 23.0492 72.4537 23.0945V23.1174H71.8705V23.0945C71.8896 23.0452 71.9022 22.9975 71.9082 22.9517C71.9143 22.906 71.9168 22.8488 71.9168 22.7802V19.7066H72.0787L69.4221 23.1462H69.3125C69.3241 23.097 69.3316 23.0482 69.3356 23.0005C69.3397 22.9527 69.3412 22.8965 69.3412 22.8319V19.4554C69.3412 19.3868 69.3381 19.3286 69.3326 19.2813C69.3271 19.2336 69.32 19.1868 69.3125 19.1416V19.1187H69.8957Z" fill="#0D0D0D"/>
<path d="M76.0285 19.1183V19.1412C76.0094 19.1909 75.9968 19.2381 75.9908 19.2839C75.9853 19.3297 75.9823 19.3869 75.9823 19.4555V22.5291H75.8204L78.4769 19.0894H78.5865C78.579 19.1392 78.572 19.1884 78.5664 19.2381C78.5604 19.2879 78.5579 19.3476 78.5579 19.4182V22.7803C78.5579 22.8489 78.5609 22.9071 78.5664 22.9543C78.572 23.0021 78.579 23.0488 78.5865 23.0941V23.117H78.0033V23.0941C78.0225 23.0448 78.035 22.9971 78.0411 22.9513C78.0466 22.9056 78.0496 22.8484 78.0496 22.7798V19.7062H78.2115L75.5549 23.1458H75.4453C75.4569 23.0966 75.4644 23.0478 75.4684 23.0001C75.4725 22.9523 75.474 22.8961 75.474 22.8315V19.455C75.474 19.3864 75.471 19.3282 75.4654 19.2809C75.4599 19.2332 75.4529 19.1864 75.4453 19.1412V19.1183H76.0285ZM76.4443 17.9072V17.9127C76.4443 17.9659 76.4498 18.0167 76.4614 18.0639C76.4729 18.1117 76.489 18.1574 76.5107 18.2012C76.5318 18.2449 76.5599 18.2842 76.5946 18.3181C76.6409 18.3713 76.7007 18.4125 76.7736 18.4409C76.8465 18.4692 76.9295 18.4837 77.022 18.4837C77.1296 18.4837 77.2261 18.4618 77.3105 18.418C77.395 18.3743 77.4634 18.3096 77.5157 18.2236C77.5675 18.138 77.5956 18.0321 77.5996 17.9062H77.8596C77.852 18.1271 77.7711 18.3081 77.6172 18.4489C77.4634 18.5896 77.2648 18.6602 77.0225 18.6602C76.7801 18.6602 76.5815 18.5896 76.4277 18.4489C76.2739 18.3081 76.1929 18.1271 76.1854 17.9062H76.4453L76.4443 17.9072Z" fill="#0D0D0D"/>
<path d="M86.0689 19.1172V19.1401C86.0533 19.1898 86.0427 19.237 86.0372 19.2828C86.0317 19.3286 86.0286 19.3858 86.0286 19.4544V23.0308L85.9361 22.9393H88.0155L87.923 23.0308V19.4544C87.923 19.3858 87.92 19.3286 87.9145 19.2828C87.9089 19.237 87.8979 19.1893 87.8828 19.1401V19.1172H88.4605V19.1401C88.4529 19.1858 88.4459 19.2326 88.4404 19.2798C88.4348 19.3276 88.4318 19.3858 88.4318 19.4539V23.1164H85.4922V23.0935C85.5038 23.0477 85.5113 23.001 85.5153 22.9537C85.5193 22.906 85.5208 22.8478 85.5208 22.7797V19.4544C85.5208 19.3858 85.5188 19.3276 85.5153 19.2803C85.5113 19.2326 85.5038 19.1858 85.4922 19.1406V19.1177H86.0699L86.0689 19.1172ZM88.639 23.3536C88.6158 23.2566 88.5696 23.1925 88.5002 23.1621C88.4308 23.1318 88.3117 23.1164 88.1422 23.1164L88.0844 22.9393H88.7948V23.848H88.6907C88.6792 23.6157 88.6621 23.4511 88.639 23.3536Z" fill="#0D0D0D"/>
<path d="M97.062 19.126V19.1489C97.0465 19.1986 97.0359 19.2459 97.0304 19.2916C97.0248 19.3374 97.0218 19.3946 97.0218 19.4632V22.7885C97.0218 22.8571 97.0248 22.9143 97.0304 22.96C97.0359 23.0058 97.047 23.0535 97.062 23.1028V23.1257H96.4844V23.1028C96.4959 23.057 96.5035 23.0103 96.5075 22.963C96.5115 22.9153 96.513 22.8571 96.513 22.789V19.4637C96.513 19.3951 96.511 19.3369 96.5075 19.2896C96.5035 19.2419 96.4959 19.1951 96.4844 19.1499V19.127H97.062V19.126ZM98.9796 20.9145V21.0915H96.958V20.9145H98.9796ZM99.4532 19.126V19.1489C99.4456 19.1946 99.4386 19.2414 99.4331 19.2886C99.4275 19.3364 99.4245 19.3946 99.4245 19.4627V22.788C99.4245 22.8566 99.4275 22.9148 99.4331 22.962C99.4386 23.0098 99.4456 23.0565 99.4532 23.1018V23.1247H98.8755V23.1018C98.8911 23.0526 98.9016 23.0048 98.9072 22.9591C98.9127 22.9133 98.9157 22.8561 98.9157 22.7875V19.4622C98.9157 19.3936 98.9127 19.3364 98.9072 19.2906C98.9016 19.2449 98.8906 19.1971 98.8755 19.1479V19.125H99.4532V19.126Z" fill="#0D0D0D"/>
<path d="M104.675 19.1172V19.3345H104.652C104.606 19.3231 104.561 19.3146 104.517 19.3087C104.472 19.3032 104.419 19.2992 104.355 19.2972C104.291 19.2952 104.215 19.2942 104.126 19.2942H103.514L103.612 19.2027V22.5166C103.612 22.6155 103.613 22.6996 103.615 22.7677C103.617 22.8364 103.619 22.8916 103.621 22.9333C103.623 22.9751 103.626 23.0174 103.629 23.0592L103.635 23.0935V23.1164H103.064V23.0935L103.069 23.0592C103.077 23.0174 103.082 22.9756 103.084 22.9333C103.086 22.8916 103.088 22.8364 103.089 22.7677C103.091 22.6991 103.092 22.6155 103.092 22.5166V19.2027L103.19 19.2942H102.572C102.484 19.2942 102.408 19.2952 102.344 19.2972C102.281 19.2992 102.227 19.3027 102.182 19.3087C102.138 19.3141 102.093 19.3231 102.047 19.3345H102.023V19.1172H104.674H104.675Z" fill="#0D0D0D"/>
<path d="M93.7472 19.1172V19.3231H93.7301C93.6914 19.3156 93.6491 19.3097 93.6029 19.3062C93.5566 19.3022 93.5008 19.2997 93.4355 19.2977C93.3701 19.2957 93.2912 19.2947 93.1987 19.2947H91.8819L91.9744 19.2032V20.9857L91.9051 20.9171H93.2972V21.0941H91.9051L91.9744 21.0255V23.0308L91.8819 22.9393H93.6205C93.6899 22.9393 93.7477 22.9363 93.7939 22.9308C93.8402 22.9249 93.8884 22.9144 93.9382 22.8995H93.9614V23.1169H91.4375V23.094C91.4491 23.0482 91.4566 23.0015 91.4606 22.9542C91.4647 22.9065 91.4662 22.8483 91.4662 22.7802V19.4549C91.4662 19.3863 91.4642 19.3281 91.4606 19.2808C91.4566 19.2331 91.4491 19.1863 91.4375 19.1411V19.1182H93.7477L93.7472 19.1172Z" fill="#0D0D0D"/>
<path d="M9.29952 3.31641L4.91446 17.3769L0 12.5153L9.29952 3.31641Z" fill="#0D0D0D"/>
<path d="M12.6506 0L11.6099 24L6.53906 18.9838L11.1926 1.44231L12.6506 0Z" fill="#0D0D0D"/>
<path d="M17.0938 3.31641L21.4788 17.3769L26.3933 12.5153L17.0938 3.31641Z" fill="#0D0D0D"/>
<path d="M13.7422 0L14.7829 24L19.8537 18.9838L15.2002 1.44231L13.7422 0Z" fill="#0D0D0D"/>
</g>
<defs>
<clipPath id="clip0_17069_14918">
<rect width="110" height="24" fill="white"/>
</clipPath>
</defs>
</svg>
