<svg width="94" height="24" viewBox="0 0 94 24" fill="none" xmlns="http://www.w3.org/2000/svg">
<g clip-path="url(#clip0_17069_14948)">
<path d="M21.0988 21.9597H15.3434V14.5649L9.58793 8.58166V1.99442H21.0921L21.0988 21.9597ZM1.91624 21.9597V1.99442H7.66493V9.40331L13.4203 15.3866V21.9527L1.91624 21.9597ZM23.015 0H0V23.9541H23.015V0Z" fill="#0D0D0D"/>
<path d="M40.9781 8.09138L35.0135 14.5662H40.6678V15.8865H31.8828V15.8584L37.8474 9.39058H32.2134V8.07031H40.9849V8.09138H40.9781Z" fill="#0D0D0D"/>
<path d="M78.2774 15.8935L72.7649 11.8555V15.8935H71.2266V8.07031H72.7649V11.8344L78.1222 8.07031H80.4905L75.1062 11.8063L80.6728 15.8865H78.2774V15.8935Z" fill="#0D0D0D"/>
<path d="M93.7856 15.8935L89.6095 12.9721H90.385C91.8558 12.9721 93.1445 12.0942 93.1445 10.6055V10.5001C93.1445 8.98325 91.8426 8.07031 90.3309 8.07031H84.2109V15.8865H85.7497V11.8063L91.5188 15.8865H93.7856V15.8935ZM85.7432 9.39757H90.358C90.9318 9.39757 91.4647 9.63636 91.6131 10.1209C91.6197 10.2052 91.6402 10.4088 91.6402 10.6125C91.6402 10.8231 91.627 11.0268 91.6131 11.104C91.4582 11.5324 90.9318 11.7923 90.358 11.7923H85.7432V9.39757Z" fill="#0D0D0D"/>
<path d="M53.455 14.503V15.8935H45.6484V8.07031H53.455V9.46083H47.1396V11.1392H53.1245V12.5297H47.1396V14.496H53.455V14.503Z" fill="#0D0D0D"/>
<path d="M66.2442 14.503V15.8935H58.4375V8.07031H66.2442V9.46083H59.9287V11.1392H65.9135V12.5297H59.9287V14.496H66.2442V14.503Z" fill="#0D0D0D"/>
</g>
<defs>
<clipPath id="clip0_17069_14948">
<rect width="94" height="24" fill="white"/>
</clipPath>
</defs>
</svg>
