<svg width="234" height="234" viewBox="0 0 234 234" fill="none" xmlns="http://www.w3.org/2000/svg">
<path d="M63.8175 0H56.7266V7.0909H63.8175V0Z" fill="#0D0D0D"/>
<path d="M70.9073 0H63.8164V7.0909H70.9073V0Z" fill="#0D0D0D"/>
<path d="M99.2725 0H92.1816V7.0909H99.2725V0Z" fill="#0D0D0D"/>
<path d="M113.454 0H106.363V7.0909H113.454V0Z" fill="#0D0D0D"/>
<path d="M134.728 0H127.637V7.0909H134.728V0Z" fill="#0D0D0D"/>
<path d="M163.091 0H156V7.0909H163.091V0Z" fill="#0D0D0D"/>
<path d="M170.183 0H163.092V7.0909H170.183V0Z" fill="#0D0D0D"/>
<path d="M177.273 0H170.182V7.0909H177.273V0Z" fill="#0D0D0D"/>
<path d="M85.0909 7.09375H78V14.1846H85.0909V7.09375Z" fill="#0D0D0D"/>
<path d="M92.1807 7.09375H85.0898V14.1846H92.1807V7.09375Z" fill="#0D0D0D"/>
<path d="M106.362 7.09375H99.2715V14.1846H106.362V7.09375Z" fill="#0D0D0D"/>
<path d="M134.728 7.09375H127.637V14.1846H134.728V7.09375Z" fill="#0D0D0D"/>
<path d="M155.999 7.09375H148.908V14.1846H155.999V7.09375Z" fill="#0D0D0D"/>
<path d="M163.091 7.09375H156V14.1846H163.091V7.09375Z" fill="#0D0D0D"/>
<path d="M170.183 7.09375H163.092V14.1846H170.183V7.09375Z" fill="#0D0D0D"/>
<path d="M70.9073 14.1875H63.8164V21.2784H70.9073V14.1875Z" fill="#0D0D0D"/>
<path d="M78.0011 14.1875H70.9102V21.2784H78.0011V14.1875Z" fill="#0D0D0D"/>
<path d="M85.0909 14.1875H78V21.2784H85.0909V14.1875Z" fill="#0D0D0D"/>
<path d="M106.362 14.1875H99.2715V21.2784H106.362V14.1875Z" fill="#0D0D0D"/>
<path d="M127.636 14.1875H120.545V21.2784H127.636V14.1875Z" fill="#0D0D0D"/>
<path d="M134.728 14.1875H127.637V21.2784H134.728V14.1875Z" fill="#0D0D0D"/>
<path d="M148.909 14.1875H141.818V21.2784H148.909V14.1875Z" fill="#0D0D0D"/>
<path d="M170.183 14.1875H163.092V21.2784H170.183V14.1875Z" fill="#0D0D0D"/>
<path d="M177.271 14.1875H170.18V21.2784H177.271V14.1875Z" fill="#0D0D0D"/>
<path d="M63.8175 21.2656H56.7266V28.3565H63.8175V21.2656Z" fill="#0D0D0D"/>
<path d="M70.9073 21.2656H63.8164V28.3565H70.9073V21.2656Z" fill="#0D0D0D"/>
<path d="M78.0011 21.2656H70.9102V28.3565H78.0011V21.2656Z" fill="#0D0D0D"/>
<path d="M85.0909 21.2656H78V28.3565H85.0909V21.2656Z" fill="#0D0D0D"/>
<path d="M113.454 21.2656H106.363V28.3565H113.454V21.2656Z" fill="#0D0D0D"/>
<path d="M127.636 21.2656H120.545V28.3565H127.636V21.2656Z" fill="#0D0D0D"/>
<path d="M163.091 21.2656H156V28.3565H163.091V21.2656Z" fill="#0D0D0D"/>
<path d="M85.0909 28.3594H78V35.4503H85.0909V28.3594Z" fill="#0D0D0D"/>
<path d="M99.2745 28.3594H92.1836V35.4503H99.2745V28.3594Z" fill="#0D0D0D"/>
<path d="M106.362 28.3594H99.2715V35.4503H106.362V28.3594Z" fill="#0D0D0D"/>
<path d="M113.454 28.3594H106.363V35.4503H113.454V28.3594Z" fill="#0D0D0D"/>
<path d="M134.728 28.3594H127.637V35.4503H134.728V28.3594Z" fill="#0D0D0D"/>
<path d="M141.817 28.3594H134.727V35.4503H141.817V28.3594Z" fill="#0D0D0D"/>
<path d="M148.909 28.3594H141.818V35.4503H148.909V28.3594Z" fill="#0D0D0D"/>
<path d="M163.091 28.3594H156V35.4503H163.091V28.3594Z" fill="#0D0D0D"/>
<path d="M70.9073 35.4531H63.8164V42.544H70.9073V35.4531Z" fill="#0D0D0D"/>
<path d="M78.0011 35.4531H70.9102V42.544H78.0011V35.4531Z" fill="#0D0D0D"/>
<path d="M85.0909 35.4531H78V42.544H85.0909V35.4531Z" fill="#0D0D0D"/>
<path d="M92.1807 35.4531H85.0898V42.544H92.1807V35.4531Z" fill="#0D0D0D"/>
<path d="M113.454 35.4531H106.363V42.544H113.454V35.4531Z" fill="#0D0D0D"/>
<path d="M120.546 35.4531H113.455V42.544H120.546V35.4531Z" fill="#0D0D0D"/>
<path d="M134.728 35.4531H127.637V42.544H134.728V35.4531Z" fill="#0D0D0D"/>
<path d="M148.909 35.4531H141.818V42.544H148.909V35.4531Z" fill="#0D0D0D"/>
<path d="M63.8175 42.5469H56.7266V49.6378H63.8175V42.5469Z" fill="#0D0D0D"/>
<path d="M78.0011 42.5469H70.9102V49.6378H78.0011V42.5469Z" fill="#0D0D0D"/>
<path d="M92.1807 42.5469H85.0898V49.6378H92.1807V42.5469Z" fill="#0D0D0D"/>
<path d="M106.362 42.5469H99.2715V49.6378H106.362V42.5469Z" fill="#0D0D0D"/>
<path d="M120.546 42.5469H113.455V49.6378H120.546V42.5469Z" fill="#0D0D0D"/>
<path d="M134.728 42.5469H127.637V49.6378H134.728V42.5469Z" fill="#0D0D0D"/>
<path d="M148.909 42.5469H141.818V49.6378H148.909V42.5469Z" fill="#0D0D0D"/>
<path d="M163.091 42.5469H156V49.6378H163.091V42.5469Z" fill="#0D0D0D"/>
<path d="M177.273 42.5469H170.182V49.6378H177.273V42.5469Z" fill="#0D0D0D"/>
<path d="M70.9073 49.6406H63.8164V56.7315H70.9073V49.6406Z" fill="#0D0D0D"/>
<path d="M85.0909 49.6406H78V56.7315H85.0909V49.6406Z" fill="#0D0D0D"/>
<path d="M99.2745 49.6406H92.1836V56.7315H99.2745V49.6406Z" fill="#0D0D0D"/>
<path d="M106.362 49.6406H99.2715V56.7315H106.362V49.6406Z" fill="#0D0D0D"/>
<path d="M113.454 49.6406H106.363V56.7315H113.454V49.6406Z" fill="#0D0D0D"/>
<path d="M120.546 49.6406H113.455V56.7315H120.546V49.6406Z" fill="#0D0D0D"/>
<path d="M127.636 49.6406H120.545V56.7315H127.636V49.6406Z" fill="#0D0D0D"/>
<path d="M141.817 49.6406H134.727V56.7315H141.817V49.6406Z" fill="#0D0D0D"/>
<path d="M155.999 49.6406H148.908V56.7315H155.999V49.6406Z" fill="#0D0D0D"/>
<path d="M177.271 49.6406H170.18V56.7315H177.271V49.6406Z" fill="#0D0D0D"/>
<path d="M21.2725 56.7344H14.1816V63.8253H21.2725V56.7344Z" fill="#0D0D0D"/>
<path d="M35.4542 56.7344H28.3633V63.8253H35.4542V56.7344Z" fill="#0D0D0D"/>
<path d="M42.544 56.7344H35.4531V63.8253H42.544V56.7344Z" fill="#0D0D0D"/>
<path d="M49.6378 56.7344H42.5469V63.8253H49.6378V56.7344Z" fill="#0D0D0D"/>
<path d="M63.8175 56.7344H56.7266V63.8253H63.8175V56.7344Z" fill="#0D0D0D"/>
<path d="M70.9073 56.7344H63.8164V63.8253H70.9073V56.7344Z" fill="#0D0D0D"/>
<path d="M78.0011 56.7344H70.9102V63.8253H78.0011V56.7344Z" fill="#0D0D0D"/>
<path d="M99.2745 56.7344H92.1836V63.8253H99.2745V56.7344Z" fill="#0D0D0D"/>
<path d="M120.546 56.7344H113.455V63.8253H120.546V56.7344Z" fill="#0D0D0D"/>
<path d="M148.909 56.7344H141.818V63.8253H148.909V56.7344Z" fill="#0D0D0D"/>
<path d="M155.999 56.7344H148.908V63.8253H155.999V56.7344Z" fill="#0D0D0D"/>
<path d="M170.183 56.7344H163.092V63.8253H170.183V56.7344Z" fill="#0D0D0D"/>
<path d="M184.364 56.7344H177.273V63.8253H184.364V56.7344Z" fill="#0D0D0D"/>
<path d="M212.726 56.7344H205.635V63.8253H212.726V56.7344Z" fill="#0D0D0D"/>
<path d="M234.001 56.7344H226.91V63.8253H234.001V56.7344Z" fill="#0D0D0D"/>
<path d="M7.0909 63.8125H0V70.9034H7.0909V63.8125Z" fill="#0D0D0D"/>
<path d="M21.2725 63.8125H14.1816V70.9034H21.2725V63.8125Z" fill="#0D0D0D"/>
<path d="M28.3643 63.8125H21.2734V70.9034H28.3643V63.8125Z" fill="#0D0D0D"/>
<path d="M35.4542 63.8125H28.3633V70.9034H35.4542V63.8125Z" fill="#0D0D0D"/>
<path d="M56.7276 63.8125H49.6367V70.9034H56.7276V63.8125Z" fill="#0D0D0D"/>
<path d="M78.0011 63.8125H70.9102V70.9034H78.0011V63.8125Z" fill="#0D0D0D"/>
<path d="M85.0909 63.8125H78V70.9034H85.0909V63.8125Z" fill="#0D0D0D"/>
<path d="M99.2745 63.8125H92.1836V70.9034H99.2745V63.8125Z" fill="#0D0D0D"/>
<path d="M120.546 63.8125H113.455V70.9034H120.546V63.8125Z" fill="#0D0D0D"/>
<path d="M127.636 63.8125H120.545V70.9034H127.636V63.8125Z" fill="#0D0D0D"/>
<path d="M134.728 63.8125H127.637V70.9034H134.728V63.8125Z" fill="#0D0D0D"/>
<path d="M148.909 63.8125H141.818V70.9034H148.909V63.8125Z" fill="#0D0D0D"/>
<path d="M155.999 63.8125H148.908V70.9034H155.999V63.8125Z" fill="#0D0D0D"/>
<path d="M163.091 63.8125H156V70.9034H163.091V63.8125Z" fill="#0D0D0D"/>
<path d="M177.271 63.8125H170.18V70.9034H177.271V63.8125Z" fill="#0D0D0D"/>
<path d="M191.454 63.8125H184.363V70.9034H191.454V63.8125Z" fill="#0D0D0D"/>
<path d="M226.907 63.8125H219.816V70.9034H226.907V63.8125Z" fill="#0D0D0D"/>
<path d="M234.001 63.8125H226.91V70.9034H234.001V63.8125Z" fill="#0D0D0D"/>
<path d="M7.0909 70.9062H0V77.9971H7.0909V70.9062Z" fill="#0D0D0D"/>
<path d="M14.1827 70.9062H7.0918V77.9971H14.1827V70.9062Z" fill="#0D0D0D"/>
<path d="M28.3643 70.9062H21.2734V77.9971H28.3643V70.9062Z" fill="#0D0D0D"/>
<path d="M49.6378 70.9062H42.5469V77.9971H49.6378V70.9062Z" fill="#0D0D0D"/>
<path d="M78.0011 70.9062H70.9102V77.9971H78.0011V70.9062Z" fill="#0D0D0D"/>
<path d="M85.0909 70.9062H78V77.9971H85.0909V70.9062Z" fill="#0D0D0D"/>
<path d="M113.454 70.9062H106.363V77.9971H113.454V70.9062Z" fill="#0D0D0D"/>
<path d="M120.546 70.9062H113.455V77.9971H120.546V70.9062Z" fill="#0D0D0D"/>
<path d="M163.091 70.9062H156V77.9971H163.091V70.9062Z" fill="#0D0D0D"/>
<path d="M184.364 70.9062H177.273V77.9971H184.364V70.9062Z" fill="#0D0D0D"/>
<path d="M191.454 70.9062H184.363V77.9971H191.454V70.9062Z" fill="#0D0D0D"/>
<path d="M205.636 70.9062H198.545V77.9971H205.636V70.9062Z" fill="#0D0D0D"/>
<path d="M219.817 70.9062H212.727V77.9971H219.817V70.9062Z" fill="#0D0D0D"/>
<path d="M234.001 70.9062H226.91V77.9971H234.001V70.9062Z" fill="#0D0D0D"/>
<path d="M7.0909 78H0V85.0909H7.0909V78Z" fill="#0D0D0D"/>
<path d="M21.2725 78H14.1816V85.0909H21.2725V78Z" fill="#0D0D0D"/>
<path d="M28.3643 78H21.2734V85.0909H28.3643V78Z" fill="#0D0D0D"/>
<path d="M42.544 78H35.4531V85.0909H42.544V78Z" fill="#0D0D0D"/>
<path d="M56.7276 78H49.6367V85.0909H56.7276V78Z" fill="#0D0D0D"/>
<path d="M70.9073 78H63.8164V85.0909H70.9073V78Z" fill="#0D0D0D"/>
<path d="M92.1807 78H85.0898V85.0909H92.1807V78Z" fill="#0D0D0D"/>
<path d="M99.2745 78H92.1836V85.0909H99.2745V78Z" fill="#0D0D0D"/>
<path d="M106.362 78H99.2715V85.0909H106.362V78Z" fill="#0D0D0D"/>
<path d="M113.454 78H106.363V85.0909H113.454V78Z" fill="#0D0D0D"/>
<path d="M127.636 78H120.545V85.0909H127.636V78Z" fill="#0D0D0D"/>
<path d="M134.728 78H127.637V85.0909H134.728V78Z" fill="#0D0D0D"/>
<path d="M141.817 78H134.727V85.0909H141.817V78Z" fill="#0D0D0D"/>
<path d="M148.909 78H141.818V85.0909H148.909V78Z" fill="#0D0D0D"/>
<path d="M155.999 78H148.908V85.0909H155.999V78Z" fill="#0D0D0D"/>
<path d="M163.091 78H156V85.0909H163.091V78Z" fill="#0D0D0D"/>
<path d="M170.183 78H163.092V85.0909H170.183V78Z" fill="#0D0D0D"/>
<path d="M226.907 78H219.816V85.0909H226.907V78Z" fill="#0D0D0D"/>
<path d="M7.0909 85.0938H0V92.1846H7.0909V85.0938Z" fill="#0D0D0D"/>
<path d="M14.1827 85.0938H7.0918V92.1846H14.1827V85.0938Z" fill="#0D0D0D"/>
<path d="M49.6378 85.0938H42.5469V92.1846H49.6378V85.0938Z" fill="#0D0D0D"/>
<path d="M70.9073 85.0938H63.8164V92.1846H70.9073V85.0938Z" fill="#0D0D0D"/>
<path d="M78.0011 85.0938H70.9102V92.1846H78.0011V85.0938Z" fill="#0D0D0D"/>
<path d="M85.0909 85.0938H78V92.1846H85.0909V85.0938Z" fill="#0D0D0D"/>
<path d="M92.1807 85.0938H85.0898V92.1846H92.1807V85.0938Z" fill="#0D0D0D"/>
<path d="M99.2725 85.0938H92.1816V92.1846H99.2725V85.0938Z" fill="#0D0D0D"/>
<path d="M106.362 85.0938H99.2715V92.1846H106.362V85.0938Z" fill="#0D0D0D"/>
<path d="M134.728 85.0938H127.637V92.1846H134.728V85.0938Z" fill="#0D0D0D"/>
<path d="M163.091 85.0938H156V92.1846H163.091V85.0938Z" fill="#0D0D0D"/>
<path d="M177.273 85.0938H170.182V92.1846H177.273V85.0938Z" fill="#0D0D0D"/>
<path d="M191.454 85.0938H184.363V92.1846H191.454V85.0938Z" fill="#0D0D0D"/>
<path d="M205.636 85.0938H198.545V92.1846H205.636V85.0938Z" fill="#0D0D0D"/>
<path d="M226.907 85.0938H219.816V92.1846H226.907V85.0938Z" fill="#0D0D0D"/>
<path d="M233.999 85.0938H226.908V92.1846H233.999V85.0938Z" fill="#0D0D0D"/>
<path d="M7.0909 92.1875H0V99.2784H7.0909V92.1875Z" fill="#0D0D0D"/>
<path d="M28.3643 92.1875H21.2734V99.2784H28.3643V92.1875Z" fill="#0D0D0D"/>
<path d="M56.7276 92.1875H49.6367V99.2784H56.7276V92.1875Z" fill="#0D0D0D"/>
<path d="M63.8175 92.1875H56.7266V99.2784H63.8175V92.1875Z" fill="#0D0D0D"/>
<path d="M70.9073 92.1875H63.8164V99.2784H70.9073V92.1875Z" fill="#0D0D0D"/>
<path d="M106.362 92.1875H99.2715V99.2784H106.362V92.1875Z" fill="#0D0D0D"/>
<path d="M113.454 92.1875H106.363V99.2784H113.454V92.1875Z" fill="#0D0D0D"/>
<path d="M120.546 92.1875H113.455V99.2784H120.546V92.1875Z" fill="#0D0D0D"/>
<path d="M134.728 92.1875H127.637V99.2784H134.728V92.1875Z" fill="#0D0D0D"/>
<path d="M163.091 92.1875H156V99.2784H163.091V92.1875Z" fill="#0D0D0D"/>
<path d="M177.271 92.1875H170.18V99.2784H177.271V92.1875Z" fill="#0D0D0D"/>
<path d="M184.364 92.1875H177.273V99.2784H184.364V92.1875Z" fill="#0D0D0D"/>
<path d="M191.454 92.1875H184.363V99.2784H191.454V92.1875Z" fill="#0D0D0D"/>
<path d="M198.544 92.1875H191.453V99.2784H198.544V92.1875Z" fill="#0D0D0D"/>
<path d="M212.728 92.1875H205.637V99.2784H212.728V92.1875Z" fill="#0D0D0D"/>
<path d="M226.907 92.1875H219.816V99.2784H226.907V92.1875Z" fill="#0D0D0D"/>
<path d="M234.001 92.1875H226.91V99.2784H234.001V92.1875Z" fill="#0D0D0D"/>
<path d="M7.0909 99.2656H0V106.357H7.0909V99.2656Z" fill="#0D0D0D"/>
<path d="M14.1827 99.2656H7.0918V106.357H14.1827V99.2656Z" fill="#0D0D0D"/>
<path d="M49.6378 99.2656H42.5469V106.357H49.6378V99.2656Z" fill="#0D0D0D"/>
<path d="M56.7276 99.2656H49.6367V106.357H56.7276V99.2656Z" fill="#0D0D0D"/>
<path d="M63.8175 99.2656H56.7266V106.357H63.8175V99.2656Z" fill="#0D0D0D"/>
<path d="M70.9073 99.2656H63.8164V106.357H70.9073V99.2656Z" fill="#0D0D0D"/>
<path d="M99.2745 99.2656H92.1836V106.357H99.2745V99.2656Z" fill="#0D0D0D"/>
<path d="M106.362 99.2656H99.2715V106.357H106.362V99.2656Z" fill="#0D0D0D"/>
<path d="M113.454 99.2656H106.363V106.357H113.454V99.2656Z" fill="#0D0D0D"/>
<path d="M134.728 99.2656H127.637V106.357H134.728V99.2656Z" fill="#0D0D0D"/>
<path d="M155.999 99.2656H148.908V106.357H155.999V99.2656Z" fill="#0D0D0D"/>
<path d="M177.271 99.2656H170.18V106.357H177.271V99.2656Z" fill="#0D0D0D"/>
<path d="M184.364 99.2656H177.273V106.357H184.364V99.2656Z" fill="#0D0D0D"/>
<path d="M205.638 99.2656H198.547V106.357H205.638V99.2656Z" fill="#0D0D0D"/>
<path d="M226.907 99.2656H219.816V106.357H226.907V99.2656Z" fill="#0D0D0D"/>
<path d="M234.001 99.2656H226.91V106.357H234.001V99.2656Z" fill="#0D0D0D"/>
<path d="M21.2725 106.359H14.1816V113.45H21.2725V106.359Z" fill="#0D0D0D"/>
<path d="M35.4542 106.359H28.3633V113.45H35.4542V106.359Z" fill="#0D0D0D"/>
<path d="M70.9073 106.359H63.8164V113.45H70.9073V106.359Z" fill="#0D0D0D"/>
<path d="M78.0011 106.359H70.9102V113.45H78.0011V106.359Z" fill="#0D0D0D"/>
<path d="M85.0909 106.359H78V113.45H85.0909V106.359Z" fill="#0D0D0D"/>
<path d="M134.728 106.359H127.637V113.45H134.728V106.359Z" fill="#0D0D0D"/>
<path d="M141.817 106.359H134.727V113.45H141.817V106.359Z" fill="#0D0D0D"/>
<path d="M148.909 106.359H141.818V113.45H148.909V106.359Z" fill="#0D0D0D"/>
<path d="M155.999 106.359H148.908V113.45H155.999V106.359Z" fill="#0D0D0D"/>
<path d="M163.091 106.359H156V113.45H163.091V106.359Z" fill="#0D0D0D"/>
<path d="M170.183 106.359H163.092V113.45H170.183V106.359Z" fill="#0D0D0D"/>
<path d="M191.454 106.359H184.363V113.45H191.454V106.359Z" fill="#0D0D0D"/>
<path d="M7.0909 113.453H0V120.544H7.0909V113.453Z" fill="#0D0D0D"/>
<path d="M28.3643 113.453H21.2734V120.544H28.3643V113.453Z" fill="#0D0D0D"/>
<path d="M49.6378 113.453H42.5469V120.544H49.6378V113.453Z" fill="#0D0D0D"/>
<path d="M56.7276 113.453H49.6367V120.544H56.7276V113.453Z" fill="#0D0D0D"/>
<path d="M85.0909 113.453H78V120.544H85.0909V113.453Z" fill="#0D0D0D"/>
<path d="M99.2745 113.453H92.1836V120.544H99.2745V113.453Z" fill="#0D0D0D"/>
<path d="M127.636 113.453H120.545V120.544H127.636V113.453Z" fill="#0D0D0D"/>
<path d="M134.728 113.453H127.637V120.544H134.728V113.453Z" fill="#0D0D0D"/>
<path d="M155.999 113.453H148.908V120.544H155.999V113.453Z" fill="#0D0D0D"/>
<path d="M163.091 113.453H156V120.544H163.091V113.453Z" fill="#0D0D0D"/>
<path d="M184.364 113.453H177.273V120.544H184.364V113.453Z" fill="#0D0D0D"/>
<path d="M191.454 113.453H184.363V120.544H191.454V113.453Z" fill="#0D0D0D"/>
<path d="M198.544 113.453H191.453V120.544H198.544V113.453Z" fill="#0D0D0D"/>
<path d="M205.638 113.453H198.547V120.544H205.638V113.453Z" fill="#0D0D0D"/>
<path d="M226.907 113.453H219.816V120.544H226.907V113.453Z" fill="#0D0D0D"/>
<path d="M21.2725 120.547H14.1816V127.638H21.2725V120.547Z" fill="#0D0D0D"/>
<path d="M35.4542 120.547H28.3633V127.638H35.4542V120.547Z" fill="#0D0D0D"/>
<path d="M42.544 120.547H35.4531V127.638H42.544V120.547Z" fill="#0D0D0D"/>
<path d="M56.7276 120.547H49.6367V127.638H56.7276V120.547Z" fill="#0D0D0D"/>
<path d="M63.8175 120.547H56.7266V127.638H63.8175V120.547Z" fill="#0D0D0D"/>
<path d="M78.0011 120.547H70.9102V127.638H78.0011V120.547Z" fill="#0D0D0D"/>
<path d="M85.0909 120.547H78V127.638H85.0909V120.547Z" fill="#0D0D0D"/>
<path d="M106.362 120.547H99.2715V127.638H106.362V120.547Z" fill="#0D0D0D"/>
<path d="M113.454 120.547H106.363V127.638H113.454V120.547Z" fill="#0D0D0D"/>
<path d="M120.546 120.547H113.455V127.638H120.546V120.547Z" fill="#0D0D0D"/>
<path d="M127.636 120.547H120.545V127.638H127.636V120.547Z" fill="#0D0D0D"/>
<path d="M141.817 120.547H134.727V127.638H141.817V120.547Z" fill="#0D0D0D"/>
<path d="M148.909 120.547H141.818V127.638H148.909V120.547Z" fill="#0D0D0D"/>
<path d="M184.364 120.547H177.273V127.638H184.364V120.547Z" fill="#0D0D0D"/>
<path d="M191.454 120.547H184.363V127.638H191.454V120.547Z" fill="#0D0D0D"/>
<path d="M212.728 120.547H205.637V127.638H212.728V120.547Z" fill="#0D0D0D"/>
<path d="M219.817 120.547H212.727V127.638H219.817V120.547Z" fill="#0D0D0D"/>
<path d="M226.907 120.547H219.816V127.638H226.907V120.547Z" fill="#0D0D0D"/>
<path d="M234.001 120.547H226.91V127.638H234.001V120.547Z" fill="#0D0D0D"/>
<path d="M14.1827 127.641H7.0918V134.732H14.1827V127.641Z" fill="#0D0D0D"/>
<path d="M21.2725 127.641H14.1816V134.732H21.2725V127.641Z" fill="#0D0D0D"/>
<path d="M28.3643 127.641H21.2734V134.732H28.3643V127.641Z" fill="#0D0D0D"/>
<path d="M35.4542 127.641H28.3633V134.732H35.4542V127.641Z" fill="#0D0D0D"/>
<path d="M42.544 127.641H35.4531V134.732H42.544V127.641Z" fill="#0D0D0D"/>
<path d="M49.6378 127.641H42.5469V134.732H49.6378V127.641Z" fill="#0D0D0D"/>
<path d="M56.7276 127.641H49.6367V134.732H56.7276V127.641Z" fill="#0D0D0D"/>
<path d="M63.8175 127.641H56.7266V134.732H63.8175V127.641Z" fill="#0D0D0D"/>
<path d="M78.0011 127.641H70.9102V134.732H78.0011V127.641Z" fill="#0D0D0D"/>
<path d="M99.2745 127.641H92.1836V134.732H99.2745V127.641Z" fill="#0D0D0D"/>
<path d="M106.362 127.641H99.2715V134.732H106.362V127.641Z" fill="#0D0D0D"/>
<path d="M127.636 127.641H120.545V134.732H127.636V127.641Z" fill="#0D0D0D"/>
<path d="M141.817 127.641H134.727V134.732H141.817V127.641Z" fill="#0D0D0D"/>
<path d="M148.909 127.641H141.818V134.732H148.909V127.641Z" fill="#0D0D0D"/>
<path d="M184.364 127.641H177.273V134.732H184.364V127.641Z" fill="#0D0D0D"/>
<path d="M219.817 127.641H212.727V134.732H219.817V127.641Z" fill="#0D0D0D"/>
<path d="M226.907 127.641H219.816V134.732H226.907V127.641Z" fill="#0D0D0D"/>
<path d="M234.001 127.641H226.91V134.732H234.001V127.641Z" fill="#0D0D0D"/>
<path d="M7.0909 134.734H0V141.825H7.0909V134.734Z" fill="#0D0D0D"/>
<path d="M14.1827 134.734H7.0918V141.825H14.1827V134.734Z" fill="#0D0D0D"/>
<path d="M28.3643 134.734H21.2734V141.825H28.3643V134.734Z" fill="#0D0D0D"/>
<path d="M56.7276 134.734H49.6367V141.825H56.7276V134.734Z" fill="#0D0D0D"/>
<path d="M63.8175 134.734H56.7266V141.825H63.8175V134.734Z" fill="#0D0D0D"/>
<path d="M70.9073 134.734H63.8164V141.825H70.9073V134.734Z" fill="#0D0D0D"/>
<path d="M78.0011 134.734H70.9102V141.825H78.0011V134.734Z" fill="#0D0D0D"/>
<path d="M99.2745 134.734H92.1836V141.825H99.2745V134.734Z" fill="#0D0D0D"/>
<path d="M106.362 134.734H99.2715V141.825H106.362V134.734Z" fill="#0D0D0D"/>
<path d="M141.817 134.734H134.727V141.825H141.817V134.734Z" fill="#0D0D0D"/>
<path d="M148.909 134.734H141.818V141.825H148.909V134.734Z" fill="#0D0D0D"/>
<path d="M155.999 134.734H148.908V141.825H155.999V134.734Z" fill="#0D0D0D"/>
<path d="M184.364 134.734H177.273V141.825H184.364V134.734Z" fill="#0D0D0D"/>
<path d="M191.454 134.734H184.363V141.825H191.454V134.734Z" fill="#0D0D0D"/>
<path d="M205.638 134.734H198.547V141.825H205.638V134.734Z" fill="#0D0D0D"/>
<path d="M234.001 134.734H226.91V141.825H234.001V134.734Z" fill="#0D0D0D"/>
<path d="M7.0909 141.812H0V148.903H7.0909V141.812Z" fill="#0D0D0D"/>
<path d="M14.1827 141.812H7.0918V148.903H14.1827V141.812Z" fill="#0D0D0D"/>
<path d="M28.3643 141.812H21.2734V148.903H28.3643V141.812Z" fill="#0D0D0D"/>
<path d="M35.4542 141.812H28.3633V148.903H35.4542V141.812Z" fill="#0D0D0D"/>
<path d="M42.544 141.812H35.4531V148.903H42.544V141.812Z" fill="#0D0D0D"/>
<path d="M49.6378 141.812H42.5469V148.903H49.6378V141.812Z" fill="#0D0D0D"/>
<path d="M56.7276 141.812H49.6367V148.903H56.7276V141.812Z" fill="#0D0D0D"/>
<path d="M70.9073 141.812H63.8164V148.903H70.9073V141.812Z" fill="#0D0D0D"/>
<path d="M78.0011 141.812H70.9102V148.903H78.0011V141.812Z" fill="#0D0D0D"/>
<path d="M92.1807 141.812H85.0898V148.903H92.1807V141.812Z" fill="#0D0D0D"/>
<path d="M106.362 141.812H99.2715V148.903H106.362V141.812Z" fill="#0D0D0D"/>
<path d="M120.546 141.812H113.455V148.903H120.546V141.812Z" fill="#0D0D0D"/>
<path d="M127.636 141.812H120.545V148.903H127.636V141.812Z" fill="#0D0D0D"/>
<path d="M148.909 141.812H141.818V148.903H148.909V141.812Z" fill="#0D0D0D"/>
<path d="M155.999 141.812H148.908V148.903H155.999V141.812Z" fill="#0D0D0D"/>
<path d="M184.364 141.812H177.273V148.903H184.364V141.812Z" fill="#0D0D0D"/>
<path d="M212.728 141.812H205.637V148.903H212.728V141.812Z" fill="#0D0D0D"/>
<path d="M226.907 141.812H219.816V148.903H226.907V141.812Z" fill="#0D0D0D"/>
<path d="M14.1827 148.906H7.0918V155.997H14.1827V148.906Z" fill="#0D0D0D"/>
<path d="M42.544 148.906H35.4531V155.997H42.544V148.906Z" fill="#0D0D0D"/>
<path d="M70.9073 148.906H63.8164V155.997H70.9073V148.906Z" fill="#0D0D0D"/>
<path d="M85.0909 148.906H78V155.997H85.0909V148.906Z" fill="#0D0D0D"/>
<path d="M134.728 148.906H127.637V155.997H134.728V148.906Z" fill="#0D0D0D"/>
<path d="M141.817 148.906H134.727V155.997H141.817V148.906Z" fill="#0D0D0D"/>
<path d="M155.999 148.906H148.908V155.997H155.999V148.906Z" fill="#0D0D0D"/>
<path d="M170.183 148.906H163.092V155.997H170.183V148.906Z" fill="#0D0D0D"/>
<path d="M184.364 148.906H177.273V155.997H184.364V148.906Z" fill="#0D0D0D"/>
<path d="M219.817 148.906H212.727V155.997H219.817V148.906Z" fill="#0D0D0D"/>
<path d="M234.001 148.906H226.91V155.997H234.001V148.906Z" fill="#0D0D0D"/>
<path d="M7.0909 156H0V163.091H7.0909V156Z" fill="#0D0D0D"/>
<path d="M28.3643 156H21.2734V163.091H28.3643V156Z" fill="#0D0D0D"/>
<path d="M49.6378 156H42.5469V163.091H49.6378V156Z" fill="#0D0D0D"/>
<path d="M78.0011 156H70.9102V163.091H78.0011V156Z" fill="#0D0D0D"/>
<path d="M85.0909 156H78V163.091H85.0909V156Z" fill="#0D0D0D"/>
<path d="M113.454 156H106.363V163.091H113.454V156Z" fill="#0D0D0D"/>
<path d="M127.636 156H120.545V163.091H127.636V156Z" fill="#0D0D0D"/>
<path d="M141.817 156H134.727V163.091H141.817V156Z" fill="#0D0D0D"/>
<path d="M155.999 156H148.908V163.091H155.999V156Z" fill="#0D0D0D"/>
<path d="M163.091 156H156V163.091H163.091V156Z" fill="#0D0D0D"/>
<path d="M191.454 156H184.363V163.091H191.454V156Z" fill="#0D0D0D"/>
<path d="M198.544 156H191.453V163.091H198.544V156Z" fill="#0D0D0D"/>
<path d="M205.638 156H198.547V163.091H205.638V156Z" fill="#0D0D0D"/>
<path d="M226.907 156H219.816V163.091H226.907V156Z" fill="#0D0D0D"/>
<path d="M234.001 156H226.91V163.091H234.001V156Z" fill="#0D0D0D"/>
<path d="M14.1827 163.094H7.0918V170.185H14.1827V163.094Z" fill="#0D0D0D"/>
<path d="M21.2725 163.094H14.1816V170.185H21.2725V163.094Z" fill="#0D0D0D"/>
<path d="M28.3643 163.094H21.2734V170.185H28.3643V163.094Z" fill="#0D0D0D"/>
<path d="M35.4542 163.094H28.3633V170.185H35.4542V163.094Z" fill="#0D0D0D"/>
<path d="M56.7276 163.094H49.6367V170.185H56.7276V163.094Z" fill="#0D0D0D"/>
<path d="M63.8175 163.094H56.7266V170.185H63.8175V163.094Z" fill="#0D0D0D"/>
<path d="M85.0909 163.094H78V170.185H85.0909V163.094Z" fill="#0D0D0D"/>
<path d="M99.2745 163.094H92.1836V170.185H99.2745V163.094Z" fill="#0D0D0D"/>
<path d="M141.817 163.094H134.727V170.185H141.817V163.094Z" fill="#0D0D0D"/>
<path d="M155.999 163.094H148.908V170.185H155.999V163.094Z" fill="#0D0D0D"/>
<path d="M163.091 163.094H156V170.185H163.091V163.094Z" fill="#0D0D0D"/>
<path d="M170.183 163.094H163.092V170.185H170.183V163.094Z" fill="#0D0D0D"/>
<path d="M184.364 163.094H177.273V170.185H184.364V163.094Z" fill="#0D0D0D"/>
<path d="M205.638 163.094H198.547V170.185H205.638V163.094Z" fill="#0D0D0D"/>
<path d="M7.0909 170.188H0V177.278H7.0909V170.188Z" fill="#0D0D0D"/>
<path d="M35.4542 170.188H28.3633V177.278H35.4542V170.188Z" fill="#0D0D0D"/>
<path d="M42.544 170.188H35.4531V177.278H42.544V170.188Z" fill="#0D0D0D"/>
<path d="M49.6378 170.188H42.5469V177.278H49.6378V170.188Z" fill="#0D0D0D"/>
<path d="M56.7276 170.188H49.6367V177.278H56.7276V170.188Z" fill="#0D0D0D"/>
<path d="M70.9073 170.188H63.8164V177.278H70.9073V170.188Z" fill="#0D0D0D"/>
<path d="M113.454 170.188H106.363V177.278H113.454V170.188Z" fill="#0D0D0D"/>
<path d="M127.636 170.188H120.545V177.278H127.636V170.188Z" fill="#0D0D0D"/>
<path d="M134.728 170.188H127.637V177.278H134.728V170.188Z" fill="#0D0D0D"/>
<path d="M141.817 170.188H134.727V177.278H141.817V170.188Z" fill="#0D0D0D"/>
<path d="M177.271 170.188H170.18V177.278H177.271V170.188Z" fill="#0D0D0D"/>
<path d="M184.364 170.188H177.273V177.278H184.364V170.188Z" fill="#0D0D0D"/>
<path d="M191.454 170.188H184.363V177.278H191.454V170.188Z" fill="#0D0D0D"/>
<path d="M198.544 170.188H191.453V177.278H198.544V170.188Z" fill="#0D0D0D"/>
<path d="M205.638 170.188H198.547V177.278H205.638V170.188Z" fill="#0D0D0D"/>
<path d="M226.907 170.188H219.816V177.278H226.907V170.188Z" fill="#0D0D0D"/>
<path d="M234.001 170.188H226.91V177.278H234.001V170.188Z" fill="#0D0D0D"/>
<path d="M63.8175 177.273H56.7266V184.364H63.8175V177.273Z" fill="#0D0D0D"/>
<path d="M70.9073 177.273H63.8164V184.364H70.9073V177.273Z" fill="#0D0D0D"/>
<path d="M78.0011 177.273H70.9102V184.364H78.0011V177.273Z" fill="#0D0D0D"/>
<path d="M99.2745 177.273H92.1836V184.364H99.2745V177.273Z" fill="#0D0D0D"/>
<path d="M106.362 177.273H99.2715V184.364H106.362V177.273Z" fill="#0D0D0D"/>
<path d="M113.454 177.273H106.363V184.364H113.454V177.273Z" fill="#0D0D0D"/>
<path d="M141.817 177.273H134.727V184.364H141.817V177.273Z" fill="#0D0D0D"/>
<path d="M148.909 177.273H141.818V184.364H148.909V177.273Z" fill="#0D0D0D"/>
<path d="M163.091 177.273H156V184.364H163.091V177.273Z" fill="#0D0D0D"/>
<path d="M170.183 177.273H163.092V184.364H170.183V177.273Z" fill="#0D0D0D"/>
<path d="M177.271 177.273H170.18V184.364H177.271V177.273Z" fill="#0D0D0D"/>
<path d="M205.638 177.273H198.547V184.364H205.638V177.273Z" fill="#0D0D0D"/>
<path d="M219.817 177.273H212.727V184.364H219.817V177.273Z" fill="#0D0D0D"/>
<path d="M234.001 177.273H226.91V184.364H234.001V177.273Z" fill="#0D0D0D"/>
<path d="M70.9073 184.359H63.8164V191.45H70.9073V184.359Z" fill="#0D0D0D"/>
<path d="M92.1807 184.359H85.0898V191.45H92.1807V184.359Z" fill="#0D0D0D"/>
<path d="M99.2745 184.359H92.1836V191.45H99.2745V184.359Z" fill="#0D0D0D"/>
<path d="M113.454 184.359H106.363V191.45H113.454V184.359Z" fill="#0D0D0D"/>
<path d="M120.546 184.359H113.455V191.45H120.546V184.359Z" fill="#0D0D0D"/>
<path d="M134.728 184.359H127.637V191.45H134.728V184.359Z" fill="#0D0D0D"/>
<path d="M141.817 184.359H134.727V191.45H141.817V184.359Z" fill="#0D0D0D"/>
<path d="M148.909 184.359H141.818V191.45H148.909V184.359Z" fill="#0D0D0D"/>
<path d="M155.999 184.359H148.908V191.45H155.999V184.359Z" fill="#0D0D0D"/>
<path d="M170.183 184.359H163.092V191.45H170.183V184.359Z" fill="#0D0D0D"/>
<path d="M177.271 184.359H170.18V191.45H177.271V184.359Z" fill="#0D0D0D"/>
<path d="M191.454 184.359H184.363V191.45H191.454V184.359Z" fill="#0D0D0D"/>
<path d="M205.638 184.359H198.547V191.45H205.638V184.359Z" fill="#0D0D0D"/>
<path d="M212.728 184.359H205.637V191.45H212.728V184.359Z" fill="#0D0D0D"/>
<path d="M226.907 184.359H219.816V191.45H226.907V184.359Z" fill="#0D0D0D"/>
<path d="M234.001 184.359H226.91V191.45H234.001V184.359Z" fill="#0D0D0D"/>
<path d="M63.8175 191.445H56.7266V198.536H63.8175V191.445Z" fill="#0D0D0D"/>
<path d="M78.0011 191.445H70.9102V198.536H78.0011V191.445Z" fill="#0D0D0D"/>
<path d="M92.1807 191.445H85.0898V198.536H92.1807V191.445Z" fill="#0D0D0D"/>
<path d="M99.2745 191.445H92.1836V198.536H99.2745V191.445Z" fill="#0D0D0D"/>
<path d="M113.454 191.445H106.363V198.536H113.454V191.445Z" fill="#0D0D0D"/>
<path d="M141.817 191.445H134.727V198.536H141.817V191.445Z" fill="#0D0D0D"/>
<path d="M177.271 191.445H170.18V198.536H177.271V191.445Z" fill="#0D0D0D"/>
<path d="M205.638 191.445H198.547V198.536H205.638V191.445Z" fill="#0D0D0D"/>
<path d="M234.001 191.445H226.91V198.536H234.001V191.445Z" fill="#0D0D0D"/>
<path d="M63.8175 198.547H56.7266V205.638H63.8175V198.547Z" fill="#0D0D0D"/>
<path d="M70.9073 198.547H63.8164V205.638H70.9073V198.547Z" fill="#0D0D0D"/>
<path d="M78.0011 198.547H70.9102V205.638H78.0011V198.547Z" fill="#0D0D0D"/>
<path d="M92.1807 198.547H85.0898V205.638H92.1807V198.547Z" fill="#0D0D0D"/>
<path d="M99.2745 198.547H92.1836V205.638H99.2745V198.547Z" fill="#0D0D0D"/>
<path d="M127.636 198.547H120.545V205.638H127.636V198.547Z" fill="#0D0D0D"/>
<path d="M134.728 198.547H127.637V205.638H134.728V198.547Z" fill="#0D0D0D"/>
<path d="M177.271 198.547H170.18V205.638H177.271V198.547Z" fill="#0D0D0D"/>
<path d="M184.364 198.547H177.273V205.638H184.364V198.547Z" fill="#0D0D0D"/>
<path d="M191.454 198.547H184.363V205.638H191.454V198.547Z" fill="#0D0D0D"/>
<path d="M198.544 198.547H191.453V205.638H198.544V198.547Z" fill="#0D0D0D"/>
<path d="M205.638 198.547H198.547V205.638H205.638V198.547Z" fill="#0D0D0D"/>
<path d="M226.907 198.547H219.816V205.638H226.907V198.547Z" fill="#0D0D0D"/>
<path d="M85.0909 205.633H78V212.724H85.0909V205.633Z" fill="#0D0D0D"/>
<path d="M106.362 205.633H99.2715V212.724H106.362V205.633Z" fill="#0D0D0D"/>
<path d="M134.728 205.633H127.637V212.724H134.728V205.633Z" fill="#0D0D0D"/>
<path d="M177.271 205.633H170.18V212.724H177.271V205.633Z" fill="#0D0D0D"/>
<path d="M205.638 205.633H198.547V212.724H205.638V205.633Z" fill="#0D0D0D"/>
<path d="M219.817 205.633H212.727V212.724H219.817V205.633Z" fill="#0D0D0D"/>
<path d="M63.8175 212.734H56.7266V219.825H63.8175V212.734Z" fill="#0D0D0D"/>
<path d="M99.2745 212.734H92.1836V219.825H99.2745V212.734Z" fill="#0D0D0D"/>
<path d="M106.362 212.734H99.2715V219.825H106.362V212.734Z" fill="#0D0D0D"/>
<path d="M120.546 212.734H113.455V219.825H120.546V212.734Z" fill="#0D0D0D"/>
<path d="M134.728 212.734H127.637V219.825H134.728V212.734Z" fill="#0D0D0D"/>
<path d="M148.909 212.734H141.818V219.825H148.909V212.734Z" fill="#0D0D0D"/>
<path d="M155.999 212.734H148.908V219.825H155.999V212.734Z" fill="#0D0D0D"/>
<path d="M163.091 212.734H156V219.825H163.091V212.734Z" fill="#0D0D0D"/>
<path d="M177.271 212.734H170.18V219.825H177.271V212.734Z" fill="#0D0D0D"/>
<path d="M184.364 212.734H177.273V219.825H184.364V212.734Z" fill="#0D0D0D"/>
<path d="M198.544 212.734H191.453V219.825H198.544V212.734Z" fill="#0D0D0D"/>
<path d="M205.638 212.734H198.547V219.825H205.638V212.734Z" fill="#0D0D0D"/>
<path d="M212.728 212.734H205.637V219.825H212.728V212.734Z" fill="#0D0D0D"/>
<path d="M234.001 212.734H226.91V219.825H234.001V212.734Z" fill="#0D0D0D"/>
<path d="M70.9073 219.82H63.8164V226.911H70.9073V219.82Z" fill="#0D0D0D"/>
<path d="M85.0909 219.82H78V226.911H85.0909V219.82Z" fill="#0D0D0D"/>
<path d="M92.1807 219.82H85.0898V226.911H92.1807V219.82Z" fill="#0D0D0D"/>
<path d="M99.2745 219.82H92.1836V226.911H99.2745V219.82Z" fill="#0D0D0D"/>
<path d="M120.546 219.82H113.455V226.911H120.546V219.82Z" fill="#0D0D0D"/>
<path d="M127.636 219.82H120.545V226.911H127.636V219.82Z" fill="#0D0D0D"/>
<path d="M134.728 219.82H127.637V226.911H134.728V219.82Z" fill="#0D0D0D"/>
<path d="M141.817 219.82H134.727V226.911H141.817V219.82Z" fill="#0D0D0D"/>
<path d="M177.271 219.82H170.18V226.911H177.271V219.82Z" fill="#0D0D0D"/>
<path d="M191.454 219.82H184.363V226.911H191.454V219.82Z" fill="#0D0D0D"/>
<path d="M198.544 219.82H191.453V226.911H198.544V219.82Z" fill="#0D0D0D"/>
<path d="M226.907 219.82H219.816V226.911H226.907V219.82Z" fill="#0D0D0D"/>
<path d="M78.0011 226.906H70.9102V233.997H78.0011V226.906Z" fill="#0D0D0D"/>
<path d="M92.1807 226.906H85.0898V233.997H92.1807V226.906Z" fill="#0D0D0D"/>
<path d="M106.362 226.906H99.2715V233.997H106.362V226.906Z" fill="#0D0D0D"/>
<path d="M113.454 226.906H106.363V233.997H113.454V226.906Z" fill="#0D0D0D"/>
<path d="M134.728 226.906H127.637V233.997H134.728V226.906Z" fill="#0D0D0D"/>
<path d="M141.817 226.906H134.727V233.997H141.817V226.906Z" fill="#0D0D0D"/>
<path d="M170.183 226.906H163.092V233.997H170.183V226.906Z" fill="#0D0D0D"/>
<path d="M177.271 226.906H170.18V233.997H177.271V226.906Z" fill="#0D0D0D"/>
<path d="M184.364 226.906H177.273V233.997H184.364V226.906Z" fill="#0D0D0D"/>
<path d="M198.544 226.906H191.453V233.997H198.544V226.906Z" fill="#0D0D0D"/>
<path d="M205.638 226.906H198.547V233.997H205.638V226.906Z" fill="#0D0D0D"/>
<path d="M212.728 226.906H205.637V233.997H212.728V226.906Z" fill="#0D0D0D"/>
<path d="M226.907 226.906H219.816V233.997H226.907V226.906Z" fill="#0D0D0D"/>
<path d="M234.001 226.906H226.91V233.997H234.001V226.906Z" fill="#0D0D0D"/>
<path d="M42.1908 0H7.44544H0V7.44544V42.1908V49.6363H7.44544H42.1908H49.6363V42.1908V7.44544V0H42.1908ZM42.1908 42.1908H7.44544V7.44544H42.1908V42.1908Z" fill="#0D0D0D"/>
<path d="M226.556 0H191.811H184.365V7.44544V42.1908V49.6363H191.811H226.556H234.002V42.1908V7.44544V0H226.556ZM226.556 42.1908H191.811V7.44544H226.556V42.1908Z" fill="#0D0D0D"/>
<path d="M42.1908 184.352H7.44544H0V191.797V226.542V233.988H7.44544H42.1908H49.6363V226.542V191.797V184.352H42.1908ZM42.1908 226.542H7.44544V191.797H42.1908V226.542Z" fill="#0D0D0D"/>
<path d="M35.4543 14.1875H14.1816V35.4602H35.4543V14.1875Z" fill="#0D0D0D"/>
<path d="M219.818 14.1875H198.545V35.4602H219.818V14.1875Z" fill="#0D0D0D"/>
<path d="M35.4543 198.547H14.1816V219.82H35.4543V198.547Z" fill="#0D0D0D"/>
<rect x="77.7227" y="77.7188" width="78.5519" height="78.5519" fill="white"/>
<path d="M112.819 146.871L99.958 134.148L111.761 89.6582L115.459 86L112.819 146.871ZM121.925 89.6582L133.728 134.148L120.866 146.871L118.227 86L121.925 89.6582ZM95.8379 130.069L83.373 117.738L106.959 94.4072L95.8379 130.069ZM150.314 117.738L137.851 130.069L126.729 94.4072L150.314 117.738Z" fill="#0D0D0D"/>
</svg>
