<svg width="56" height="56" viewBox="0 0 56 56" fill="none" xmlns="http://www.w3.org/2000/svg">
<path d="M28.0069 7C19.2396 7 16.6754 7.00905 16.177 7.0504C14.3778 7.2 13.2583 7.48336 12.0385 8.09078C11.0986 8.55769 10.3572 9.09888 9.62561 9.85753C8.29318 11.2411 7.48564 12.9432 7.1933 14.9665C7.05118 15.9487 7.00983 16.149 7.00143 21.1662C6.99821 22.8386 7.00143 25.0395 7.00143 27.9917C7.00143 36.7543 7.01112 39.3166 7.05312 39.8141C7.19848 41.5654 7.47303 42.6671 8.05447 43.8723C9.16565 46.1793 11.2878 47.9111 13.788 48.5573C14.6537 48.7803 15.6098 48.9031 16.8373 48.9612C17.3573 48.9838 22.658 49 27.9619 49C33.2659 49 38.5698 48.9935 39.0769 48.9677C40.4982 48.9008 41.3235 48.79 42.236 48.5541C44.7523 47.9047 46.8358 46.1987 47.9696 43.8594C48.5397 42.6833 48.8288 41.5395 48.9596 39.8797C48.988 39.5179 49 33.7482 49 27.9863C49 22.2234 48.9871 16.4644 48.9587 16.1025C48.8262 14.4159 48.5371 13.2818 47.9486 12.0831C47.4657 11.1018 46.9295 10.369 46.151 9.61974C44.7617 8.29241 43.0626 7.48465 41.038 7.19257C40.057 7.05072 39.8616 7.00871 34.8419 7H28.0069Z" fill="url(#paint0_radial_14555_27988)"/>
<path d="M28.0069 7C19.2396 7 16.6754 7.00905 16.177 7.0504C14.3778 7.2 13.2583 7.48336 12.0385 8.09078C11.0986 8.55769 10.3572 9.09888 9.62561 9.85753C8.29318 11.2411 7.48564 12.9432 7.1933 14.9665C7.05118 15.9487 7.00983 16.149 7.00143 21.1662C6.99821 22.8386 7.00143 25.0395 7.00143 27.9917C7.00143 36.7543 7.01112 39.3166 7.05312 39.8141C7.19848 41.5654 7.47303 42.6671 8.05447 43.8723C9.16565 46.1793 11.2878 47.9111 13.788 48.5573C14.6537 48.7803 15.6098 48.9031 16.8373 48.9612C17.3573 48.9838 22.658 49 27.9619 49C33.2659 49 38.5698 48.9935 39.0769 48.9677C40.4982 48.9008 41.3235 48.79 42.236 48.5541C44.7523 47.9047 46.8358 46.1987 47.9696 43.8594C48.5397 42.6833 48.8288 41.5395 48.9596 39.8797C48.988 39.5179 49 33.7482 49 27.9863C49 22.2234 48.9871 16.4644 48.9587 16.1025C48.8262 14.4159 48.5371 13.2818 47.9486 12.0831C47.4657 11.1018 46.9295 10.369 46.151 9.61974C44.7617 8.29241 43.0626 7.48465 41.038 7.19257C40.057 7.05072 39.8616 7.00871 34.8419 7H28.0069Z" fill="url(#paint1_radial_14555_27988)"/>
<path d="M28.0069 7C19.2396 7 16.6754 7.00905 16.177 7.0504C14.3778 7.2 13.2583 7.48336 12.0385 8.09078C11.0986 8.55769 10.3572 9.09888 9.62561 9.85753C8.29318 11.2411 7.48564 12.9432 7.1933 14.9665C7.05118 15.9487 7.00983 16.149 7.00143 21.1662C6.99821 22.8386 7.00143 25.0395 7.00143 27.9917C7.00143 36.7543 7.01112 39.3166 7.05312 39.8141C7.19848 41.5654 7.47303 42.6671 8.05447 43.8723C9.16565 46.1793 11.2878 47.9111 13.788 48.5573C14.6537 48.7803 15.6098 48.9031 16.8373 48.9612C17.3573 48.9838 22.658 49 27.9619 49C33.2659 49 38.5698 48.9935 39.0769 48.9677C40.4982 48.9008 41.3235 48.79 42.236 48.5541C44.7523 47.9047 46.8358 46.1987 47.9696 43.8594C48.5397 42.6833 48.8288 41.5395 48.9596 39.8797C48.988 39.5179 49 33.7482 49 27.9863C49 22.2234 48.9871 16.4644 48.9587 16.1025C48.8262 14.4159 48.5371 13.2818 47.9486 12.0831C47.4657 11.1018 46.9295 10.369 46.151 9.61974C44.7617 8.29241 43.0626 7.48465 41.038 7.19257C40.057 7.05072 39.8616 7.00871 34.8419 7H28.0069Z" fill="url(#paint2_radial_14555_27988)"/>
<path d="M28.0069 7C19.2396 7 16.6754 7.00905 16.177 7.0504C14.3778 7.2 13.2583 7.48336 12.0385 8.09078C11.0986 8.55769 10.3572 9.09888 9.62561 9.85753C8.29318 11.2411 7.48564 12.9432 7.1933 14.9665C7.05118 15.9487 7.00983 16.149 7.00143 21.1662C6.99821 22.8386 7.00143 25.0395 7.00143 27.9917C7.00143 36.7543 7.01112 39.3166 7.05312 39.8141C7.19848 41.5654 7.47303 42.6671 8.05447 43.8723C9.16565 46.1793 11.2878 47.9111 13.788 48.5573C14.6537 48.7803 15.6098 48.9031 16.8373 48.9612C17.3573 48.9838 22.658 49 27.9619 49C33.2659 49 38.5698 48.9935 39.0769 48.9677C40.4982 48.9008 41.3235 48.79 42.236 48.5541C44.7523 47.9047 46.8358 46.1987 47.9696 43.8594C48.5397 42.6833 48.8288 41.5395 48.9596 39.8797C48.988 39.5179 49 33.7482 49 27.9863C49 22.2234 48.9871 16.4644 48.9587 16.1025C48.8262 14.4159 48.5371 13.2818 47.9486 12.0831C47.4657 11.1018 46.9295 10.369 46.151 9.61974C44.7617 8.29241 43.0626 7.48465 41.038 7.19257C40.057 7.05072 39.8616 7.00871 34.8419 7H28.0069Z" fill="url(#paint3_radial_14555_27988)"/>
<path d="M28.0078 12.3926C23.7668 12.3926 23.2346 12.4111 21.5689 12.4869C19.9064 12.5629 18.7717 12.8259 17.7788 13.2118C16.7517 13.6104 15.8804 14.1435 15.0125 15.0112C14.1438 15.8785 13.6103 16.7491 13.2101 17.7751C12.823 18.7676 12.5595 19.9018 12.4846 21.5624C12.4102 23.2268 12.3906 23.759 12.3906 27.9969C12.3906 32.2348 12.4095 32.765 12.485 34.4294C12.5614 36.0907 12.8246 37.2246 13.2105 38.2167C13.6096 39.2431 14.1432 40.1136 15.0115 40.981C15.8792 41.849 16.7504 42.3834 17.7768 42.782C18.7704 43.1679 19.9055 43.4309 21.5676 43.507C23.2333 43.5827 23.7652 43.6012 28.0059 43.6012C32.2472 43.6012 32.7778 43.5827 34.4435 43.5069C36.106 43.4309 37.242 43.1679 38.2356 42.782C39.2624 42.3834 40.1323 41.849 41 40.981C41.8686 40.1136 42.4021 39.2431 42.8023 38.2171C43.1862 37.2246 43.4497 36.0903 43.5278 34.4298C43.6026 32.7653 43.6221 32.2348 43.6221 27.9969C43.6221 23.759 43.6026 23.2272 43.5278 21.5627C43.4497 19.9015 43.1862 18.7676 42.8023 17.7754C42.4021 16.7491 41.8686 15.8785 41 15.0112C40.1313 14.1432 39.2627 13.61 38.2346 13.2118C37.2391 12.8259 36.1037 12.5629 34.4413 12.4869C32.7756 12.4111 32.2453 12.3926 28.003 12.3926H28.0078ZM26.607 15.2046C27.0227 15.204 27.4867 15.2046 28.0078 15.2046C32.1773 15.2046 32.6715 15.2196 34.318 15.2943C35.8405 15.3639 36.6669 15.6181 37.2173 15.8317C37.9461 16.1145 38.4656 16.4526 39.0118 16.9988C39.5584 17.5449 39.8967 18.0651 40.1804 18.7933C40.3942 19.3427 40.6489 20.1684 40.7182 21.6898C40.793 23.3348 40.8093 23.8289 40.8093 27.9933C40.8093 32.1577 40.793 32.6519 40.7182 34.2968C40.6486 35.8182 40.3942 36.644 40.1804 37.1934C39.8974 37.9216 39.5584 38.4401 39.0118 38.9859C38.4653 39.5321 37.9464 39.8702 37.2173 40.153C36.6675 40.3675 35.8405 40.6211 34.318 40.6907C32.6718 40.7655 32.1773 40.7817 28.0078 40.7817C23.8381 40.7817 23.3439 40.7655 21.6977 40.6907C20.1752 40.6205 19.3488 40.3662 18.798 40.1527C18.0693 39.8698 17.5487 39.5317 17.0022 38.9856C16.4556 38.4394 16.1173 37.9206 15.8336 37.1921C15.6199 36.6427 15.3651 35.8169 15.2958 34.2955C15.221 32.6506 15.206 32.1564 15.206 27.9894C15.206 23.8224 15.221 23.3309 15.2958 21.6859C15.3655 20.1645 15.6199 19.3388 15.8336 18.7887C16.1166 18.0605 16.4556 17.5404 17.0022 16.9942C17.5487 16.4481 18.0693 16.11 18.798 15.8265C19.3485 15.6119 20.1752 15.3584 21.6977 15.2885C23.1383 15.2235 23.6965 15.204 26.607 15.2007L26.607 15.2046ZM36.3435 17.7956C35.3089 17.7956 34.4696 18.6333 34.4696 19.6674C34.4696 20.7012 35.3089 21.54 36.3435 21.54C37.378 21.54 38.2174 20.7012 38.2174 19.6674C38.2174 18.6337 37.378 17.7949 36.3435 17.7949L36.3435 17.7956ZM28.0078 19.9834C23.5791 19.9834 19.9884 23.5714 19.9884 27.9969C19.9884 32.4223 23.5791 36.0087 28.0078 36.0087C32.4366 36.0087 36.026 32.4223 36.026 27.9969C36.026 23.5714 32.4363 19.9834 28.0075 19.9834H28.0078ZM28.0078 22.7955C30.8825 22.7955 33.2131 25.1241 33.2131 27.9969C33.2131 30.8694 30.8825 33.1983 28.0078 33.1983C25.1329 33.1983 22.8025 30.8694 22.8025 27.9969C22.8025 25.1241 25.1329 22.7955 28.0078 22.7955Z" fill="white"/>
<path d="M28.0069 7C19.2396 7 16.6754 7.00905 16.177 7.0504C14.3778 7.2 13.2583 7.48336 12.0385 8.09078C11.0986 8.55769 10.3572 9.09888 9.62561 9.85753C8.29318 11.2411 7.48564 12.9432 7.1933 14.9665C7.05118 15.9487 7.00983 16.149 7.00143 21.1662C6.99821 22.8386 7.00143 25.0395 7.00143 27.9917C7.00143 36.7543 7.01112 39.3166 7.05312 39.8141C7.19848 41.5654 7.47303 42.6671 8.05447 43.8723C9.16565 46.1793 11.2878 47.9111 13.788 48.5573C14.6537 48.7803 15.6098 48.9031 16.8373 48.9612C17.3573 48.9838 22.658 49 27.9619 49C33.2659 49 38.5698 48.9935 39.0769 48.9677C40.4982 48.9008 41.3235 48.79 42.236 48.5541C44.7523 47.9047 46.8358 46.1987 47.9696 43.8594C48.5397 42.6833 48.8288 41.5395 48.9596 39.8797C48.988 39.5179 49 33.7482 49 27.9863C49 22.2234 48.9871 16.4644 48.9587 16.1025C48.8262 14.4159 48.5371 13.2818 47.9486 12.0831C47.4657 11.1018 46.9295 10.369 46.151 9.61974C44.7617 8.29241 43.0626 7.48465 41.038 7.19257C40.057 7.05072 39.8616 7.00871 34.8419 7H28.0069Z" fill="url(#paint4_radial_14555_27988)"/>
<path d="M28.0069 7C19.2396 7 16.6754 7.00905 16.177 7.0504C14.3778 7.2 13.2583 7.48336 12.0385 8.09078C11.0986 8.55769 10.3572 9.09888 9.62561 9.85753C8.29318 11.2411 7.48564 12.9432 7.1933 14.9665C7.05118 15.9487 7.00983 16.149 7.00143 21.1662C6.99821 22.8386 7.00143 25.0395 7.00143 27.9917C7.00143 36.7543 7.01112 39.3166 7.05312 39.8141C7.19848 41.5654 7.47303 42.6671 8.05447 43.8723C9.16565 46.1793 11.2878 47.9111 13.788 48.5573C14.6537 48.7803 15.6098 48.9031 16.8373 48.9612C17.3573 48.9838 22.658 49 27.9619 49C33.2659 49 38.5698 48.9935 39.0769 48.9677C40.4982 48.9008 41.3235 48.79 42.236 48.5541C44.7523 47.9047 46.8358 46.1987 47.9696 43.8594C48.5397 42.6833 48.8288 41.5395 48.9596 39.8797C48.988 39.5179 49 33.7482 49 27.9863C49 22.2234 48.9871 16.4644 48.9587 16.1025C48.8262 14.4159 48.5371 13.2818 47.9486 12.0831C47.4657 11.1018 46.9295 10.369 46.151 9.61974C44.7617 8.29241 43.0626 7.48465 41.038 7.19257C40.057 7.05072 39.8616 7.00871 34.8419 7H28.0069Z" fill="url(#paint5_radial_14555_27988)"/>
<path d="M28.0069 7C19.2396 7 16.6754 7.00905 16.177 7.0504C14.3778 7.2 13.2583 7.48336 12.0385 8.09078C11.0986 8.55769 10.3572 9.09888 9.62561 9.85753C8.29318 11.2411 7.48564 12.9432 7.1933 14.9665C7.05118 15.9487 7.00983 16.149 7.00143 21.1662C6.99821 22.8386 7.00143 25.0395 7.00143 27.9917C7.00143 36.7543 7.01112 39.3166 7.05312 39.8141C7.19848 41.5654 7.47303 42.6671 8.05447 43.8723C9.16565 46.1793 11.2878 47.9111 13.788 48.5573C14.6537 48.7803 15.6098 48.9031 16.8373 48.9612C17.3573 48.9838 22.658 49 27.9619 49C33.2659 49 38.5698 48.9935 39.0769 48.9677C40.4982 48.9008 41.3235 48.79 42.236 48.5541C44.7523 47.9047 46.8358 46.1987 47.9696 43.8594C48.5397 42.6833 48.8288 41.5395 48.9596 39.8797C48.988 39.5179 49 33.7482 49 27.9863C49 22.2234 48.9871 16.4644 48.9587 16.1025C48.8262 14.4159 48.5371 13.2818 47.9486 12.0831C47.4657 11.1018 46.9295 10.369 46.151 9.61974C44.7617 8.29241 43.0626 7.48465 41.038 7.19257C40.057 7.05072 39.8616 7.00871 34.8419 7H28.0069Z" fill="url(#paint6_radial_14555_27988)"/>
<path d="M28.0069 7C19.2396 7 16.6754 7.00905 16.177 7.0504C14.3778 7.2 13.2583 7.48336 12.0385 8.09078C11.0986 8.55769 10.3572 9.09888 9.62561 9.85753C8.29318 11.2411 7.48564 12.9432 7.1933 14.9665C7.05118 15.9487 7.00983 16.149 7.00143 21.1662C6.99821 22.8386 7.00143 25.0395 7.00143 27.9917C7.00143 36.7543 7.01112 39.3166 7.05312 39.8141C7.19848 41.5654 7.47303 42.6671 8.05447 43.8723C9.16565 46.1793 11.2878 47.9111 13.788 48.5573C14.6537 48.7803 15.6098 48.9031 16.8373 48.9612C17.3573 48.9838 22.658 49 27.9619 49C33.2659 49 38.5698 48.9935 39.0769 48.9677C40.4982 48.9008 41.3235 48.79 42.236 48.5541C44.7523 47.9047 46.8358 46.1987 47.9696 43.8594C48.5397 42.6833 48.8288 41.5395 48.9596 39.8797C48.988 39.5179 49 33.7482 49 27.9863C49 22.2234 48.9871 16.4644 48.9587 16.1025C48.8262 14.4159 48.5371 13.2818 47.9486 12.0831C47.4657 11.1018 46.9295 10.369 46.151 9.61974C44.7617 8.29241 43.0626 7.48465 41.038 7.19257C40.057 7.05072 39.8616 7.00871 34.8419 7H28.0069Z" fill="url(#paint7_radial_14555_27988)"/>
<path d="M28.0078 12.3926C23.7668 12.3926 23.2346 12.4111 21.5689 12.4869C19.9064 12.5629 18.7717 12.8259 17.7788 13.2118C16.7517 13.6104 15.8804 14.1435 15.0125 15.0112C14.1438 15.8785 13.6103 16.7491 13.2101 17.7751C12.823 18.7676 12.5595 19.9018 12.4846 21.5624C12.4102 23.2268 12.3906 23.759 12.3906 27.9969C12.3906 32.2348 12.4095 32.765 12.485 34.4294C12.5614 36.0907 12.8246 37.2246 13.2105 38.2167C13.6096 39.2431 14.1432 40.1136 15.0115 40.981C15.8792 41.849 16.7504 42.3834 17.7768 42.782C18.7704 43.1679 19.9055 43.4309 21.5676 43.507C23.2333 43.5827 23.7652 43.6012 28.0059 43.6012C32.2472 43.6012 32.7778 43.5827 34.4435 43.5069C36.106 43.4309 37.242 43.1679 38.2356 42.782C39.2624 42.3834 40.1323 41.849 41 40.981C41.8686 40.1136 42.4021 39.2431 42.8023 38.2171C43.1862 37.2246 43.4497 36.0903 43.5278 34.4298C43.6026 32.7653 43.6221 32.2348 43.6221 27.9969C43.6221 23.759 43.6026 23.2272 43.5278 21.5627C43.4497 19.9015 43.1862 18.7676 42.8023 17.7754C42.4021 16.7491 41.8686 15.8785 41 15.0112C40.1313 14.1432 39.2627 13.61 38.2346 13.2118C37.2391 12.8259 36.1037 12.5629 34.4413 12.4869C32.7756 12.4111 32.2453 12.3926 28.003 12.3926H28.0078ZM26.607 15.2046C27.0227 15.204 27.4867 15.2046 28.0078 15.2046C32.1773 15.2046 32.6715 15.2196 34.318 15.2943C35.8405 15.3639 36.6669 15.6181 37.2173 15.8317C37.9461 16.1145 38.4656 16.4526 39.0118 16.9988C39.5584 17.5449 39.8967 18.0651 40.1804 18.7933C40.3942 19.3427 40.6489 20.1684 40.7182 21.6898C40.793 23.3348 40.8093 23.8289 40.8093 27.9933C40.8093 32.1577 40.793 32.6519 40.7182 34.2968C40.6486 35.8182 40.3942 36.644 40.1804 37.1934C39.8974 37.9216 39.5584 38.4401 39.0118 38.9859C38.4653 39.5321 37.9464 39.8702 37.2173 40.153C36.6675 40.3675 35.8405 40.6211 34.318 40.6907C32.6718 40.7655 32.1773 40.7817 28.0078 40.7817C23.8381 40.7817 23.3439 40.7655 21.6977 40.6907C20.1752 40.6205 19.3488 40.3662 18.798 40.1527C18.0693 39.8698 17.5487 39.5317 17.0022 38.9856C16.4556 38.4394 16.1173 37.9206 15.8336 37.1921C15.6199 36.6427 15.3651 35.8169 15.2958 34.2955C15.221 32.6506 15.206 32.1564 15.206 27.9894C15.206 23.8224 15.221 23.3309 15.2958 21.6859C15.3655 20.1645 15.6199 19.3388 15.8336 18.7887C16.1166 18.0605 16.4556 17.5404 17.0022 16.9942C17.5487 16.4481 18.0693 16.11 18.798 15.8265C19.3485 15.6119 20.1752 15.3584 21.6977 15.2885C23.1383 15.2235 23.6965 15.204 26.607 15.2007L26.607 15.2046ZM36.3435 17.7956C35.3089 17.7956 34.4696 18.6333 34.4696 19.6674C34.4696 20.7012 35.3089 21.54 36.3435 21.54C37.378 21.54 38.2174 20.7012 38.2174 19.6674C38.2174 18.6337 37.378 17.7949 36.3435 17.7949L36.3435 17.7956ZM28.0078 19.9834C23.5791 19.9834 19.9884 23.5714 19.9884 27.9969C19.9884 32.4223 23.5791 36.0087 28.0078 36.0087C32.4366 36.0087 36.026 32.4223 36.026 27.9969C36.026 23.5714 32.4363 19.9834 28.0075 19.9834H28.0078ZM28.0078 22.7955C30.8825 22.7955 33.2131 25.1241 33.2131 27.9969C33.2131 30.8694 30.8825 33.1983 28.0078 33.1983C25.1329 33.1983 22.8025 30.8694 22.8025 27.9969C22.8025 25.1241 25.1329 22.7955 28.0078 22.7955Z" fill="white"/>
<defs>
<radialGradient id="paint0_radial_14555_27988" cx="0" cy="0" r="1" gradientUnits="userSpaceOnUse" gradientTransform="translate(47.6438 26.6859) rotate(164.25) scale(26.8356 19.3338)">
<stop stop-color="#FF005F"/>
<stop offset="1" stop-color="#FC01D8"/>
</radialGradient>
<radialGradient id="paint1_radial_14555_27988" cx="0" cy="0" r="1" gradientUnits="userSpaceOnUse" gradientTransform="translate(18.1559 52.2348) rotate(-90) scale(33.5252 35.5695)">
<stop stop-color="#FFCC00"/>
<stop offset="0.1242" stop-color="#FFCC00"/>
<stop offset="0.5672" stop-color="#FE4A05"/>
<stop offset="0.6942" stop-color="#FF0F3F"/>
<stop offset="1" stop-color="#FE0657" stop-opacity="0"/>
</radialGradient>
<radialGradient id="paint2_radial_14555_27988" cx="0" cy="0" r="1" gradientUnits="userSpaceOnUse" gradientTransform="translate(29.0613 48.4077) rotate(-59.8703) scale(13.863 18.048)">
<stop stop-color="#FFCC00"/>
<stop offset="1" stop-color="#FFCC00" stop-opacity="0"/>
</radialGradient>
<radialGradient id="paint3_radial_14555_27988" cx="0" cy="0" r="1" gradientUnits="userSpaceOnUse" gradientTransform="translate(12.6985 8.71023) rotate(164.274) scale(26.538 9.04146)">
<stop stop-color="#780CFF"/>
<stop offset="1" stop-color="#820BFF" stop-opacity="0"/>
</radialGradient>
<radialGradient id="paint4_radial_14555_27988" cx="0" cy="0" r="1" gradientUnits="userSpaceOnUse" gradientTransform="translate(47.6438 26.6859) rotate(164.25) scale(26.8356 19.3338)">
<stop stop-color="#FF005F"/>
<stop offset="1" stop-color="#FC01D8"/>
</radialGradient>
<radialGradient id="paint5_radial_14555_27988" cx="0" cy="0" r="1" gradientUnits="userSpaceOnUse" gradientTransform="translate(18.1559 52.2348) rotate(-90) scale(33.5252 35.5695)">
<stop stop-color="#FFCC00"/>
<stop offset="0.1242" stop-color="#FFCC00"/>
<stop offset="0.5672" stop-color="#FE4A05"/>
<stop offset="0.6942" stop-color="#FF0F3F"/>
<stop offset="1" stop-color="#FE0657" stop-opacity="0"/>
</radialGradient>
<radialGradient id="paint6_radial_14555_27988" cx="0" cy="0" r="1" gradientUnits="userSpaceOnUse" gradientTransform="translate(29.0613 48.4077) rotate(-59.8703) scale(13.863 18.048)">
<stop stop-color="#FFCC00"/>
<stop offset="1" stop-color="#FFCC00" stop-opacity="0"/>
</radialGradient>
<radialGradient id="paint7_radial_14555_27988" cx="0" cy="0" r="1" gradientUnits="userSpaceOnUse" gradientTransform="translate(12.6985 8.71023) rotate(164.274) scale(26.538 9.04146)">
<stop stop-color="#780CFF"/>
<stop offset="1" stop-color="#820BFF" stop-opacity="0"/>
</radialGradient>
</defs>
</svg>
