<svg width="56" height="56" viewBox="0 0 56 56" fill="none" xmlns="http://www.w3.org/2000/svg">
<path d="M27.9993 20.418C25.9881 20.418 24.0593 21.2169 22.6371 22.6391C21.215 24.0612 20.416 25.9901 20.416 28.0013C20.416 30.0125 21.215 31.9414 22.6371 33.3635C24.0593 34.7857 25.9881 35.5846 27.9993 35.5846C30.0106 35.5846 31.9394 34.7857 33.3616 33.3635C34.7837 31.9414 35.5827 30.0125 35.5827 28.0013C35.5827 25.9901 34.7837 24.0612 33.3616 22.6391C31.9394 21.2169 30.0106 20.418 27.9993 20.418Z" fill="#0D0D0D"/>
<path fill-rule="evenodd" clip-rule="evenodd" d="M15.7974 7.1895C23.9082 6.291 32.0933 6.291 40.2041 7.1895C44.6351 7.68417 48.2074 11.1725 48.7278 15.6198C49.689 23.8441 49.689 32.1523 48.7278 40.3765C48.2074 44.8238 44.6351 48.3122 40.2064 48.8092C32.0949 49.7078 23.909 49.7078 15.7974 48.8092C11.3664 48.3122 7.7941 44.8238 7.27377 40.3788C6.31239 32.1538 6.31239 23.8448 7.27377 15.6198C7.7941 11.1725 11.3664 7.68417 15.7974 7.1895ZM39.6674 13.9982C39.0486 13.9982 38.4551 14.244 38.0175 14.6816C37.5799 15.1192 37.3341 15.7127 37.3341 16.3315C37.3341 16.9503 37.5799 17.5438 38.0175 17.9814C38.4551 18.419 39.0486 18.6648 39.6674 18.6648C40.2863 18.6648 40.8798 18.419 41.3173 17.9814C41.7549 17.5438 42.0008 16.9503 42.0008 16.3315C42.0008 15.7127 41.7549 15.1192 41.3173 14.6816C40.8798 14.244 40.2863 13.9982 39.6674 13.9982ZM16.9174 27.9982C16.9174 25.0587 18.0851 22.2396 20.1637 20.1611C22.2422 18.0825 25.0613 16.9148 28.0008 16.9148C30.9402 16.9148 33.7593 18.0825 35.8379 20.1611C37.9164 22.2396 39.0841 25.0587 39.0841 27.9982C39.0841 30.9376 37.9164 33.7567 35.8379 35.8353C33.7593 37.9138 30.9402 39.0815 28.0008 39.0815C25.0613 39.0815 22.2422 37.9138 20.1637 35.8353C18.0851 33.7567 16.9174 30.9376 16.9174 27.9982Z" fill="#0D0D0D"/>
</svg>
