<svg width="56" height="56" viewBox="0 0 56 56" fill="none" xmlns="http://www.w3.org/2000/svg">
<path d="M49.4648 16.7487C48.9486 14.8455 47.4327 13.3498 45.504 12.8403C42.0117 11.916 28.0015 11.916 28.0015 11.916C28.0015 11.916 13.9914 11.916 10.499 12.8403C8.57029 13.3498 7.05457 14.8455 6.53828 16.7487C5.60156 20.195 5.60156 27.3894 5.60156 27.3894C5.60156 27.3894 5.60156 34.584 6.53828 38.0302C7.05457 39.9335 8.57029 41.4291 10.499 41.9385C13.9914 42.8629 28.0015 42.8629 28.0015 42.8629C28.0015 42.8629 42.0117 42.8629 45.504 41.9385C47.4327 41.4291 48.9486 39.9335 49.4648 38.0302C50.4016 34.584 50.4016 27.3894 50.4016 27.3894C50.4016 27.3894 50.3978 20.195 49.4648 16.7487Z" fill="#FF0000"/>
<path d="M23.5156 34.0206L35.1545 27.3902L23.5156 20.7598V34.0206Z" fill="white"/>
<path d="M49.4648 16.7487C48.9486 14.8455 47.4327 13.3498 45.504 12.8403C42.0117 11.916 28.0015 11.916 28.0015 11.916C28.0015 11.916 13.9914 11.916 10.499 12.8403C8.57029 13.3498 7.05457 14.8455 6.53828 16.7487C5.60156 20.195 5.60156 27.3894 5.60156 27.3894C5.60156 27.3894 5.60156 34.584 6.53828 38.0302C7.05457 39.9335 8.57029 41.4291 10.499 41.9385C13.9914 42.8629 28.0015 42.8629 28.0015 42.8629C28.0015 42.8629 42.0117 42.8629 45.504 41.9385C47.4327 41.4291 48.9486 39.9335 49.4648 38.0302C50.4016 34.584 50.4016 27.3894 50.4016 27.3894C50.4016 27.3894 50.3978 20.195 49.4648 16.7487Z" fill="#FF0000"/>
<path d="M23.5156 34.0206L35.1545 27.3902L23.5156 20.7598V34.0206Z" fill="white"/>
</svg>
