<svg width="56" height="56" viewBox="0 0 56 56" fill="none" xmlns="http://www.w3.org/2000/svg">
<path fill-rule="evenodd" clip-rule="evenodd" d="M46.141 10.3366C46.7176 10.0939 47.3487 10.0102 47.9686 10.0942C48.5886 10.1782 49.1747 10.4268 49.6659 10.8142C50.1572 11.2016 50.5356 11.7135 50.7618 12.2968C50.9881 12.88 51.0538 13.5133 50.9523 14.1306L45.6603 46.2303C45.147 49.3266 41.7496 51.1023 38.91 49.5599C36.5346 48.2696 33.0066 46.2816 29.8333 44.2072C28.2466 43.1689 23.3863 39.8439 23.9836 37.4779C24.497 35.4549 32.6636 27.8529 37.3303 23.3333C39.162 21.5576 38.3266 20.5333 36.1636 22.1666C30.7923 26.2219 22.1683 32.3889 19.317 34.1249C16.8016 35.6556 15.4903 35.9169 13.9223 35.6556C11.0616 35.1796 8.40863 34.4423 6.2433 33.5439C3.3173 32.3306 3.45963 28.3079 6.24097 27.1366L46.141 10.3366Z" fill="#FF573D"/>
</svg>
