<svg width="56" height="56" viewBox="0 0 56 56" fill="none" xmlns="http://www.w3.org/2000/svg">
<path d="M23.3327 35.0013L35.4427 28.0013L23.3327 21.0013V35.0013ZM50.306 16.7313C50.6093 17.828 50.8193 19.298 50.9593 21.1646C51.1227 23.0313 51.1927 24.6413 51.1927 26.0413L51.3327 28.0013C51.3327 33.1113 50.9593 36.868 50.306 39.2713C49.7227 41.3713 48.3693 42.7246 46.2693 43.308C45.1727 43.6113 43.166 43.8213 40.086 43.9613C37.0527 44.1246 34.276 44.1946 31.7093 44.1946L27.9993 44.3346C18.2227 44.3346 12.1327 43.9613 9.72935 43.308C7.62935 42.7246 6.27602 41.3713 5.69268 39.2713C5.38935 38.1746 5.17935 36.7046 5.03935 34.838C4.87602 32.9713 4.80602 31.3613 4.80602 29.9613L4.66602 28.0013C4.66602 22.8913 5.03935 19.1346 5.69268 16.7313C6.27602 14.6313 7.62935 13.278 9.72935 12.6946C10.826 12.3913 12.8327 12.1813 15.9127 12.0413C18.946 11.878 21.7227 11.808 24.2893 11.808L27.9993 11.668C37.776 11.668 43.866 12.0413 46.2693 12.6946C48.3693 13.278 49.7227 14.6313 50.306 16.7313Z" fill="#0D0D0D"/>
</svg>
