<svg width="56" height="56" viewBox="0 0 56 56" fill="none" xmlns="http://www.w3.org/2000/svg">
<path d="M9.94 9.94C7 12.908 7 17.654 7 27.16V28.84C7 38.332 7 43.078 9.94 46.06C12.908 49 17.654 49 27.16 49H28.84C38.332 49 43.078 49 46.06 46.06C49 43.092 49 38.346 49 28.84V27.16C49 17.668 49 12.922 46.06 9.94C43.092 7 38.346 7 28.84 7H27.16C17.668 7 12.922 7 9.94 9.94ZM14.084 19.782H18.9C19.054 27.79 22.582 31.178 25.382 31.878V19.782H29.904V26.684C32.662 26.39 35.574 23.24 36.554 19.768H41.062C40.6942 21.5652 39.9598 23.2672 38.9048 24.7679C37.8497 26.2686 36.4966 27.5356 34.93 28.49C36.6787 29.36 38.223 30.591 39.461 32.1017C40.699 33.6124 41.6025 35.3685 42.112 37.254H37.142C36.078 33.936 33.418 31.36 29.904 31.01V37.254H29.344C19.768 37.254 14.308 30.702 14.084 19.782Z" fill="#0D0D0D"/>
</svg>
