<svg width="56" height="56" viewBox="0 0 56 56" fill="none" xmlns="http://www.w3.org/2000/svg">
<path d="M7 27.16C7 17.6565 7 12.9047 9.95236 9.95236C12.9047 7 17.6565 7 27.16 7H28.84C38.3435 7 43.0952 7 46.0477 9.95236C49 12.9047 49 17.6565 49 27.16V28.84C49 38.3435 49 43.0952 46.0477 46.0477C43.0952 49 38.3435 49 28.84 49H27.16C17.6565 49 12.9047 49 9.95236 46.0477C7 43.0952 7 38.3435 7 28.84V27.16Z" fill="#0077FF"/>
<path d="M29.3459 37.2579C19.7734 37.2579 14.3134 30.6954 14.0859 19.7754H18.8809C19.0384 27.7904 22.5733 31.1854 25.3734 31.8854V19.7754H29.8885V26.6879C32.6535 26.3904 35.5582 23.2404 36.5382 19.7754H41.0533C40.3008 24.0454 37.1508 27.1954 34.9108 28.4904C37.1508 29.5404 40.7384 32.2879 42.1034 37.2579H37.1333C36.0658 33.9329 33.406 31.3604 29.8885 31.0104V37.2579H29.3459Z" fill="white"/>
<path d="M7 27.16C7 17.6565 7 12.9047 9.95236 9.95236C12.9047 7 17.6565 7 27.16 7H28.84C38.3435 7 43.0952 7 46.0477 9.95236C49 12.9047 49 17.6565 49 27.16V28.84C49 38.3435 49 43.0952 46.0477 46.0477C43.0952 49 38.3435 49 28.84 49H27.16C17.6565 49 12.9047 49 9.95236 46.0477C7 43.0952 7 38.3435 7 28.84V27.16Z" fill="#0077FF"/>
<path d="M29.3459 37.2579C19.7734 37.2579 14.3134 30.6954 14.0859 19.7754H18.8809C19.0384 27.7904 22.5733 31.1854 25.3734 31.8854V19.7754H29.8885V26.6879C32.6535 26.3904 35.5582 23.2404 36.5382 19.7754H41.0533C40.3008 24.0454 37.1508 27.1954 34.9108 28.4904C37.1508 29.5404 40.7384 32.2879 42.1034 37.2579H37.1333C36.0658 33.9329 33.406 31.3604 29.8885 31.0104V37.2579H29.3459Z" fill="white"/>
</svg>
