<svg width="56" height="56" viewBox="0 0 56 56" fill="none" xmlns="http://www.w3.org/2000/svg">
<path d="M28.0146 49.0291C39.6206 49.0291 49.0291 39.6206 49.0291 28.0146C49.0291 16.4085 39.6206 7 28.0146 7C16.4085 7 7 16.4085 7 28.0146C7 39.6206 16.4085 49.0291 28.0146 49.0291Z" fill="url(#paint0_linear_14555_27979)"/>
<path fill-rule="evenodd" clip-rule="evenodd" d="M16.5038 27.7867C22.6279 25.127 26.7049 23.3598 28.7521 22.5024C34.5788 20.0703 35.8036 19.6503 36.591 19.6328C36.766 19.6328 37.1509 19.6678 37.4134 19.8778C37.6233 20.0528 37.6758 20.2802 37.7108 20.4552C37.7458 20.6302 37.7808 20.9976 37.7458 21.2776C37.4309 24.6021 36.0661 32.6685 35.3662 36.378C35.0687 37.9528 34.4913 38.4777 33.9314 38.5302C32.7065 38.6352 31.7792 37.7253 30.6068 36.9554C28.7521 35.7481 27.7197 34.9957 25.9175 33.8058C23.8353 32.441 25.1826 31.6886 26.3724 30.4638C26.6874 30.1489 32.0591 25.2495 32.1641 24.8121C32.1816 24.7596 32.1816 24.5496 32.0591 24.4446C31.9366 24.3397 31.7617 24.3747 31.6217 24.4096C31.4292 24.4446 28.4896 26.4044 22.7679 30.2713C21.928 30.8488 21.1756 31.1287 20.4932 31.1112C19.7408 31.0937 18.306 30.6913 17.2212 30.3413C15.9089 29.9214 14.859 29.6939 14.9465 28.959C14.999 28.5741 15.5239 28.1891 16.5038 27.7867Z" fill="white"/>
<path d="M28.0146 49.0291C39.6206 49.0291 49.0291 39.6206 49.0291 28.0146C49.0291 16.4085 39.6206 7 28.0146 7C16.4085 7 7 16.4085 7 28.0146C7 39.6206 16.4085 49.0291 28.0146 49.0291Z" fill="url(#paint1_linear_14555_27979)"/>
<path fill-rule="evenodd" clip-rule="evenodd" d="M16.5038 27.7867C22.6279 25.127 26.7049 23.3598 28.7521 22.5024C34.5788 20.0703 35.8036 19.6503 36.591 19.6328C36.766 19.6328 37.1509 19.6678 37.4134 19.8778C37.6233 20.0528 37.6758 20.2802 37.7108 20.4552C37.7458 20.6302 37.7808 20.9976 37.7458 21.2776C37.4309 24.6021 36.0661 32.6685 35.3662 36.378C35.0687 37.9528 34.4913 38.4777 33.9314 38.5302C32.7065 38.6352 31.7792 37.7253 30.6068 36.9554C28.7521 35.7481 27.7197 34.9957 25.9175 33.8058C23.8353 32.441 25.1826 31.6886 26.3724 30.4638C26.6874 30.1489 32.0591 25.2495 32.1641 24.8121C32.1816 24.7596 32.1816 24.5496 32.0591 24.4446C31.9366 24.3397 31.7617 24.3747 31.6217 24.4096C31.4292 24.4446 28.4896 26.4044 22.7679 30.2713C21.928 30.8488 21.1756 31.1287 20.4932 31.1112C19.7408 31.0937 18.306 30.6913 17.2212 30.3413C15.9089 29.9214 14.859 29.6939 14.9465 28.959C14.999 28.5741 15.5239 28.1891 16.5038 27.7867Z" fill="white"/>
<defs>
<linearGradient id="paint0_linear_14555_27979" x1="27.9971" y1="7" x2="27.9971" y2="48.6967" gradientUnits="userSpaceOnUse">
<stop stop-color="#2AABEE"/>
<stop offset="1" stop-color="#229ED9"/>
</linearGradient>
<linearGradient id="paint1_linear_14555_27979" x1="27.9971" y1="7" x2="27.9971" y2="48.6967" gradientUnits="userSpaceOnUse">
<stop stop-color="#2AABEE"/>
<stop offset="1" stop-color="#229ED9"/>
</linearGradient>
</defs>
</svg>
