<svg width="12" height="14" viewBox="0 0 12 14" fill="none" xmlns="http://www.w3.org/2000/svg">
<path d="M6.23871 3.28C6.37933 3.42045 6.56996 3.49934 6.76871 3.49934C6.96746 3.49934 7.15808 3.42045 7.29871 3.28L8.01871 2.56V12.75C8.01871 12.9489 8.09773 13.1397 8.23838 13.2803C8.37903 13.421 8.5698 13.5 8.76871 13.5C8.96762 13.5 9.15839 13.421 9.29904 13.2803C9.43969 13.1397 9.51871 12.9489 9.51871 12.75V2.56L10.2387 3.28C10.3074 3.35369 10.3902 3.41279 10.4822 3.45378C10.5742 3.49477 10.6735 3.51681 10.7742 3.51859C10.8749 3.52037 10.9749 3.50184 11.0683 3.46412C11.1617 3.4264 11.2465 3.37026 11.3177 3.29904C11.389 3.22782 11.4451 3.14299 11.4828 3.0496C11.5206 2.95621 11.5391 2.85618 11.5373 2.75548C11.5355 2.65477 11.5135 2.55546 11.4725 2.46346C11.4315 2.37146 11.3724 2.28866 11.2987 2.22L9.29871 0.22C9.15808 0.0795493 8.96746 0.000659943 8.76871 0.000659943C8.56996 0.000659943 8.37933 0.0795493 8.23871 0.22L6.23871 2.22C6.09826 2.36063 6.01937 2.55125 6.01937 2.75C6.01937 2.94875 6.09826 3.13937 6.23871 3.28ZM3.51871 10.94L4.23871 10.22C4.30737 10.1463 4.39017 10.0872 4.48217 10.0462C4.57417 10.0052 4.67348 9.98319 4.77419 9.98141C4.87489 9.97963 4.97492 9.99816 5.06831 10.0359C5.16169 10.0736 5.24653 10.1297 5.31775 10.201C5.38897 10.2722 5.44511 10.357 5.48283 10.4504C5.52055 10.5438 5.53908 10.6438 5.5373 10.7445C5.53552 10.8452 5.51348 10.9445 5.47249 11.0365C5.4315 11.1285 5.37239 11.2113 5.29871 11.28L3.29871 13.28C3.15808 13.4205 2.96746 13.4993 2.76871 13.4993C2.56996 13.4993 2.37933 13.4205 2.23871 13.28L0.238708 11.28C0.165021 11.2113 0.105919 11.1285 0.064927 11.0365C0.023935 10.9445 0.00189351 10.8452 0.000116722 10.7445C-0.00166006 10.6438 0.0168643 10.5438 0.0545854 10.4504C0.0923064 10.357 0.148451 10.2722 0.21967 10.201C0.290888 10.1297 0.375722 10.0736 0.46911 10.0359C0.562499 9.99816 0.662528 9.97963 0.763231 9.98141C0.863934 9.98319 0.963247 10.0052 1.05525 10.0462C1.14725 10.0872 1.23005 10.1463 1.29871 10.22L2.01871 10.94V0.75C2.01871 0.551088 2.09773 0.360322 2.23838 0.21967C2.37903 0.0790175 2.5698 0 2.76871 0C2.96762 0 3.15839 0.0790175 3.29904 0.21967C3.43969 0.360322 3.51871 0.551088 3.51871 0.75V10.94Z" fill="#0D0D0D"/>
</svg>
