<svg width="24" height="22" viewBox="0 0 24 22" fill="none" xmlns="http://www.w3.org/2000/svg">
<path d="M11.7997 0.443986C11.868 0.279727 12.1007 0.279727 12.169 0.443986L15.1115 7.51852C15.1403 7.58776 15.2054 7.63508 15.2802 7.64107L22.9177 8.25337C23.0951 8.26759 23.167 8.48889 23.0319 8.60462L17.2129 13.5892C17.1559 13.638 17.131 13.7146 17.1484 13.7875L18.9262 21.2405C18.9675 21.4135 18.7793 21.5503 18.6274 21.4576L12.0886 17.4637C12.0246 17.4246 11.9441 17.4246 11.8801 17.4637L5.34132 21.4576C5.1895 21.5503 5.00125 21.4135 5.04252 21.2405L6.82033 13.7875C6.83773 13.7146 6.81285 13.638 6.7559 13.5892L0.936888 8.60462C0.801781 8.48889 0.873686 8.26759 1.05102 8.25337L8.68857 7.64107C8.76332 7.63508 8.82845 7.58776 8.85725 7.51852L11.7997 0.443986Z" fill="#F8CD46"/>
</svg>
