<svg width="20" height="20" viewBox="0 0 20 20" fill="none" xmlns="http://www.w3.org/2000/svg">
<g clip-path="url(#clip0_17001_65413)">
<path fill-rule="evenodd" clip-rule="evenodd" d="M13.9078 18.3075C12.7078 18.2633 9.30692 17.7933 5.74525 14.2325C2.18442 10.6708 1.71525 7.27084 1.67025 6.07001C1.60359 4.24001 3.00525 2.46251 4.62442 1.76834C4.8194 1.68414 5.03292 1.65209 5.24403 1.67532C5.45514 1.69855 5.65658 1.77626 5.82859 1.90084C7.16192 2.87251 8.08192 4.34251 8.87192 5.49834C9.04574 5.75228 9.12006 6.06129 9.08072 6.3665C9.04138 6.67171 8.89112 6.95178 8.65859 7.15334L7.03275 8.36084C6.95421 8.41756 6.89891 8.50086 6.87715 8.59527C6.85539 8.68969 6.86863 8.78879 6.91442 8.87417C7.28275 9.54334 7.93775 10.54 8.68775 11.29C9.43775 12.04 10.4819 12.7383 11.1978 13.1483C11.2875 13.1987 11.3932 13.2128 11.493 13.1877C11.5928 13.1626 11.6792 13.1002 11.7344 13.0133L12.7928 11.4025C12.9873 11.144 13.2744 10.9709 13.5937 10.9193C13.9131 10.8678 14.2401 10.9418 14.5061 11.1258C15.6786 11.9375 17.0469 12.8417 18.0486 14.1242C18.1833 14.2974 18.269 14.5037 18.2967 14.7214C18.3244 14.9391 18.2931 15.1602 18.2061 15.3617C17.5086 16.9892 15.7436 18.375 13.9078 18.3075Z" stroke="#202020" stroke-width="1.5"/>
</g>
<defs>
<clipPath id="clip0_17001_65413">
<rect width="20" height="20" fill="white"/>
</clipPath>
</defs>
</svg>
