<svg width="44" height="44" viewBox="0 0 44 44" fill="none" xmlns="http://www.w3.org/2000/svg">
<path d="M22.0115 38.5229C31.1305 38.5229 38.5229 31.1305 38.5229 22.0115C38.5229 12.8924 31.1305 5.5 22.0115 5.5C12.8924 5.5 5.5 12.8924 5.5 22.0115C5.5 31.1305 12.8924 38.5229 22.0115 38.5229Z" fill="url(#paint0_linear_14673_37642)"/>
<path fill-rule="evenodd" clip-rule="evenodd" d="M12.9668 21.8324C17.7787 19.7427 20.982 18.3541 22.5905 17.6805C27.1686 15.7695 28.131 15.4395 28.7496 15.4258C28.8871 15.4258 29.1896 15.4533 29.3958 15.6183C29.5608 15.7557 29.602 15.9345 29.6295 16.0719C29.657 16.2094 29.6845 16.4981 29.657 16.7181C29.4096 19.3302 28.3372 25.6681 27.7873 28.5827C27.5536 29.82 27.0999 30.2325 26.6599 30.2737C25.6976 30.3562 24.9689 29.6413 24.0478 29.0364C22.5905 28.0878 21.7794 27.4966 20.3633 26.5617C18.7273 25.4894 19.7859 24.8982 20.7208 23.9358C20.9682 23.6884 25.1889 19.8389 25.2714 19.4952C25.2851 19.454 25.2851 19.289 25.1889 19.2065C25.0927 19.124 24.9552 19.1515 24.8452 19.179C24.694 19.2065 22.3843 20.7463 17.8887 23.7846C17.2288 24.2383 16.6376 24.4583 16.1014 24.4445C15.5102 24.4308 14.3829 24.1146 13.5305 23.8396C12.4994 23.5097 11.6745 23.3309 11.7433 22.7535C11.7845 22.4511 12.197 22.1486 12.9668 21.8324Z" fill="white"/>
<path d="M22.0115 38.5229C31.1305 38.5229 38.5229 31.1305 38.5229 22.0115C38.5229 12.8924 31.1305 5.5 22.0115 5.5C12.8924 5.5 5.5 12.8924 5.5 22.0115C5.5 31.1305 12.8924 38.5229 22.0115 38.5229Z" fill="url(#paint1_linear_14673_37642)"/>
<path fill-rule="evenodd" clip-rule="evenodd" d="M12.9668 21.8324C17.7787 19.7427 20.982 18.3541 22.5905 17.6805C27.1686 15.7695 28.131 15.4395 28.7496 15.4258C28.8871 15.4258 29.1896 15.4533 29.3958 15.6183C29.5608 15.7557 29.602 15.9345 29.6295 16.0719C29.657 16.2094 29.6845 16.4981 29.657 16.7181C29.4096 19.3302 28.3372 25.6681 27.7873 28.5827C27.5536 29.82 27.0999 30.2325 26.6599 30.2737C25.6976 30.3562 24.9689 29.6413 24.0478 29.0364C22.5905 28.0878 21.7794 27.4966 20.3633 26.5617C18.7273 25.4894 19.7859 24.8982 20.7208 23.9358C20.9682 23.6884 25.1889 19.8389 25.2714 19.4952C25.2851 19.454 25.2851 19.289 25.1889 19.2065C25.0927 19.124 24.9552 19.1515 24.8452 19.179C24.694 19.2065 22.3843 20.7463 17.8887 23.7846C17.2288 24.2383 16.6376 24.4583 16.1014 24.4445C15.5102 24.4308 14.3829 24.1146 13.5305 23.8396C12.4994 23.5097 11.6745 23.3309 11.7433 22.7535C11.7845 22.4511 12.197 22.1486 12.9668 21.8324Z" fill="white"/>
<defs>
<linearGradient id="paint0_linear_14673_37642" x1="21.9977" y1="5.5" x2="21.9977" y2="38.2617" gradientUnits="userSpaceOnUse">
<stop stop-color="#2AABEE"/>
<stop offset="1" stop-color="#229ED9"/>
</linearGradient>
<linearGradient id="paint1_linear_14673_37642" x1="21.9977" y1="5.5" x2="21.9977" y2="38.2617" gradientUnits="userSpaceOnUse">
<stop stop-color="#2AABEE"/>
<stop offset="1" stop-color="#229ED9"/>
</linearGradient>
</defs>
</svg>
