<svg width="44" height="44" viewBox="0 0 44 44" fill="none" xmlns="http://www.w3.org/2000/svg">
<path d="M5.5 21.34C5.5 13.8729 5.5 10.1394 7.81971 7.81971C10.1394 5.5 13.8729 5.5 21.34 5.5H22.66C30.1271 5.5 33.8605 5.5 36.1803 7.81971C38.5 10.1394 38.5 13.8729 38.5 21.34V22.66C38.5 30.1271 38.5 33.8605 36.1803 36.1803C33.8605 38.5 30.1271 38.5 22.66 38.5H21.34C13.8729 38.5 10.1394 38.5 7.81971 36.1803C5.5 33.8605 5.5 30.1271 5.5 22.66V21.34Z" fill="#0077FF"/>
<path d="M23.0583 29.2753C15.537 29.2753 11.2471 24.1191 11.0684 15.5391H14.8359C14.9596 21.8366 17.737 24.5041 19.937 25.0541V15.5391H23.4847V20.9703C25.6572 20.7366 27.9394 18.2616 28.7094 15.5391H32.257C31.6657 18.8941 29.1907 21.3691 27.4307 22.3866C29.1907 23.2116 32.0096 25.3703 33.0821 29.2753H29.177C28.3382 26.6628 26.2484 24.6416 23.4847 24.3666V29.2753H23.0583Z" fill="white"/>
<path d="M5.5 21.34C5.5 13.8729 5.5 10.1394 7.81971 7.81971C10.1394 5.5 13.8729 5.5 21.34 5.5H22.66C30.1271 5.5 33.8605 5.5 36.1803 7.81971C38.5 10.1394 38.5 13.8729 38.5 21.34V22.66C38.5 30.1271 38.5 33.8605 36.1803 36.1803C33.8605 38.5 30.1271 38.5 22.66 38.5H21.34C13.8729 38.5 10.1394 38.5 7.81971 36.1803C5.5 33.8605 5.5 30.1271 5.5 22.66V21.34Z" fill="#0077FF"/>
<path d="M23.0583 29.2753C15.537 29.2753 11.2471 24.1191 11.0684 15.5391H14.8359C14.9596 21.8366 17.737 24.5041 19.937 25.0541V15.5391H23.4847V20.9703C25.6572 20.7366 27.9394 18.2616 28.7094 15.5391H32.257C31.6657 18.8941 29.1907 21.3691 27.4307 22.3866C29.1907 23.2116 32.0096 25.3703 33.0821 29.2753H29.177C28.3382 26.6628 26.2484 24.6416 23.4847 24.3666V29.2753H23.0583Z" fill="white"/>
</svg>
