<svg width="487" height="48" viewBox="0 0 487 48" fill="none" xmlns="http://www.w3.org/2000/svg">
<path d="M0 24.5L111.935 24.5V23.5L0 23.5L0 24.5Z" fill="url(#paint0_linear_14673_34076)"/>
<path d="M132.261 6.01338C129.812 7.16267 127.468 9.52887 126.279 11.9965C125.614 13.3486 125.439 14.2613 125.439 16.4585C125.439 19.2303 126.174 21.9683 126.909 21.9683C127.084 21.9683 127.119 22.1035 127.014 22.3063C126.909 22.4754 126.979 22.6444 127.154 22.6444C127.364 22.6444 127.538 22.8134 127.538 22.9824C127.538 23.6246 130.617 26.2613 132.296 27.0049C133.206 27.4444 134.815 27.85 135.864 27.9514L137.718 28.1542L137.509 29.8782C137.369 30.8246 136.844 34.0021 136.319 36.943C135.724 40.2894 135.514 42.25 135.759 42.25C136.214 42.25 143.491 31.3655 145.555 27.6134C148.283 22.6782 148.878 20.7514 148.878 16.7627C148.878 12.4021 148.248 10.881 145.345 8.04155C143.176 5.94577 141.462 5.30352 137.683 5.16831C134.605 5.0331 134.22 5.1007 132.261 6.01338ZM140.307 12.8754C142.651 14.8697 142.756 18.2162 140.482 20.0754C138.348 21.7993 135.445 21.5289 133.485 19.3993C132.646 18.4528 132.436 17.912 132.436 16.6951C132.436 13.7204 134.36 11.8275 137.404 11.8275C138.768 11.8275 139.293 12.0303 140.307 12.8754Z" fill="#FF0000"/>
<path d="M176.437 5.54543C173.464 6.32289 171.085 8.62148 170.035 11.7651C169.581 13.0835 169.476 14.3004 169.581 16.6666C169.791 20.7229 170.7 22.4806 173.779 24.7454C174.303 25.1511 174.058 25.7933 171.225 31.7426C169.511 35.3257 168.111 38.4018 168.111 38.6046C168.111 38.7736 169.161 38.875 170.42 38.8074L172.729 38.706L175.598 32.4525L178.501 26.1989L179.936 26.0975L181.405 25.9961V32.4187V38.875H183.329H185.253V21.9736V5.07219L181.685 5.10599C179.691 5.10599 177.347 5.3088 176.437 5.54543ZM181.405 15.5849V22.7173L179.306 22.582C175.493 22.3116 173.883 20.2496 173.918 15.7201C173.918 10.9539 175.947 8.52007 179.936 8.48627L181.405 8.45247V15.5849Z" fill="#FF0000"/>
<path d="M282.506 21.8028V38.5352H283.555H284.605V30.8957V23.2901L285.724 23.3915C286.809 23.4929 286.984 23.7633 290.867 31.0309L294.89 38.5352H296.219C296.954 38.5352 297.548 38.4676 297.548 38.3999C297.548 38.2985 295.554 34.4788 293.106 29.8478L288.663 21.4985L292.931 13.4873C295.275 9.0929 297.199 5.37459 297.199 5.23938C297.199 5.13797 296.639 5.07037 295.939 5.13797L294.645 5.23938L290.657 12.7436C286.809 19.9436 286.599 20.2816 285.619 20.2816H284.605V12.676V5.07037H283.555H282.506V21.8028Z" fill="black"/>
<path d="M302.274 14.3997C300.454 15.3799 300 15.9208 300.21 16.8673C300.629 18.6926 300.664 18.7264 301.329 18.1856C303.183 16.5969 306.157 16.0898 307.661 17.1039C308.815 17.9152 309.445 19.6053 309.445 21.9715V23.9997H306.891C301.994 23.9997 299.685 26.0954 299.37 30.9292C299.055 35.7969 301.084 39.2109 304.268 39.2109C305.982 39.2109 307.731 38.2645 308.675 36.7771L309.375 35.7292L309.62 37.149C309.83 38.3659 309.97 38.5349 310.774 38.5349H311.719L311.544 28.3264C311.369 17.2053 311.264 16.6307 309.305 14.8729C308.5 14.163 307.941 14.0278 305.842 13.9602C304.023 13.8588 303.043 13.994 302.274 14.3997ZM309.445 28.9687C309.445 31.9771 308.78 33.7349 307.031 35.2898C305.807 36.4391 303.988 36.6419 302.938 35.7969C300.874 34.1405 300.944 29.4419 303.078 27.6166C303.778 27.0081 306.052 26.5011 308.326 26.3997L309.445 26.3659V28.9687Z" fill="black"/>
<path d="M320.276 14.7404C319.682 15.2474 318.912 16.1939 318.527 16.87L317.862 18.0869L317.827 16.1263C317.827 14.1996 317.827 14.1996 316.778 14.1996H315.729V30.5939V46.9883H316.778H317.827V40.8024C317.827 35.5291 317.897 34.7855 318.282 35.4953C319.297 37.3545 320.031 38.1657 321.151 38.6728C324.019 39.9911 326.958 38.7404 328.637 35.3939C330.106 32.5207 330.526 29.9855 330.316 25.1855C330.071 19.3376 328.917 16.3629 326.258 14.639C324.509 13.4897 321.746 13.5573 320.276 14.7404ZM325.314 17.2756C327.448 18.8981 328.497 22.6503 328.217 27.6193C328.007 31.4728 327.308 33.6362 325.839 35.0897C324.439 36.4756 323.04 36.746 321.571 35.9348C319.297 34.6165 318.247 32.2841 317.932 27.7207C317.513 21.1967 319.717 16.5657 323.285 16.5657C323.88 16.5657 324.789 16.87 325.314 17.2756Z" fill="black"/>
<path d="M332.541 15.5492V16.9014H334.99H337.439V27.7183V38.5352H338.488H339.538V27.7183V16.9014H342.161H344.785V15.5492V14.1971H338.663H332.541V15.5492Z" fill="black"/>
<path d="M347.596 26.3661V38.5352H350.954C355.047 38.5352 356.201 37.9943 357.461 35.5605C358.126 34.2084 358.265 33.4309 358.265 30.5915C358.265 27.6507 358.161 27.0422 357.461 25.8253C356.271 23.8647 355.152 23.3239 352.178 23.3239H349.695V18.7605V14.1971H348.645H347.596V26.3661ZM354.697 26.7042C355.887 27.6168 356.481 29.4422 356.236 31.6394C355.922 34.6816 354.627 35.8309 351.444 35.8309H349.695V30.9295V26.0281H351.759C353.263 26.0281 354.033 26.1971 354.697 26.7042Z" fill="black"/>
<path d="M360.893 26.3661V38.5352H361.942H362.992V26.3661V14.1971H361.942H360.893V26.3661Z" fill="black"/>
<path d="M230.133 14.9088C229.538 15.0778 228.524 15.7201 227.894 16.2947C225.585 18.5595 224.641 22.2778 224.851 28.4299C224.956 31.8778 225.131 32.9257 225.795 34.3792C227.369 37.7933 230.413 39.5172 234.051 39.044C235.835 38.8412 238.529 37.8609 238.879 37.2863C239.124 36.9144 238.424 34.1426 238.109 34.1426C237.969 34.1426 237.27 34.4468 236.5 34.8186C235.031 35.5623 232.512 35.6975 231.393 35.1567C230.343 34.582 229.329 32.2834 229.084 29.9172L228.874 27.7201H234.051H239.229L239.019 24.4074C238.669 18.8299 237.515 16.3961 234.786 15.1792C233.247 14.5032 231.882 14.4356 230.133 14.9088ZM233.282 18.5257C234.051 19.337 234.471 20.5201 234.751 22.751L234.996 24.6778H231.952H228.874L229.119 22.9201C229.678 18.8637 231.637 16.7679 233.282 18.5257Z" fill="black"/>
<path d="M264.143 14.8463C260.015 15.8942 257.881 19.2069 257.461 25.2914C256.971 31.6463 258.861 36.6491 262.394 38.4745C263.828 39.2182 267.991 39.1844 269.39 38.4407C271.419 37.3928 271.349 37.4604 270.755 35.7703L270.23 34.1815L269.11 34.8238C267.571 35.7027 265.717 35.9393 264.668 35.4322C262.709 34.4182 261.799 31.5449 261.834 26.4745C261.834 19.6463 264.878 16.4351 269.006 18.9027L270.23 19.6463L270.405 18.8689C271 15.9956 271 15.928 269.88 15.3534C268.586 14.7449 265.647 14.4745 264.143 14.8463Z" fill="black"/>
<path d="M189.83 26.875V38.875H191.929H194.028V33.6356V28.3961H196.652H199.275V33.6356V38.875H201.374H203.473V26.875V14.875H201.374H199.275V19.9454V25.0158H196.652H194.028V19.9454V14.875H191.929H189.83V26.875Z" fill="black"/>
<path d="M208.929 21.3653C208.649 30.0526 207.564 35.2245 205.955 35.4273C205.221 35.5287 205.186 35.6639 205.186 39.416V43.2695H207.11H209.034V41.0723V38.8752H213.931H218.829V41.0723V43.2695H220.753H222.677V39.3822V35.4949H221.802H220.928V25.185V14.8752H215.016H209.139L208.929 21.3653ZM216.73 26.8752V35.4949H213.721C210.993 35.4949 210.748 35.4273 210.958 34.8864C211.902 32.5202 212.882 25.2188 212.882 20.5202V18.2554H214.806H216.73V26.8752Z" fill="black"/>
<path d="M242.619 26.875V38.875H244.718H246.782L246.887 33.568L246.992 28.2609L249.896 33.568L252.799 38.875H255.073C256.297 38.875 257.312 38.8074 257.312 38.7398C257.312 38.6384 255.808 35.8665 253.954 32.5539C252.099 29.2412 250.56 26.368 250.56 26.1989C250.56 25.9961 251.82 23.5285 253.394 20.6891C254.968 17.8496 256.262 15.382 256.262 15.213C256.262 15.0102 255.353 14.875 254.268 14.875H252.239L249.546 19.8778L246.817 24.8468V19.844V14.875H244.718H242.619V26.875Z" fill="black"/>
<path d="M487 23.5L375.065 23.5V24.5L487 24.5V23.5Z" fill="url(#paint1_linear_14673_34076)"/>
<defs>
<linearGradient id="paint0_linear_14673_34076" x1="0" y1="24" x2="111.935" y2="24" gradientUnits="userSpaceOnUse">
<stop stop-color="#D2C9C4"/>
<stop offset="0.6" stop-color="#8A7F79"/>
<stop offset="1" stop-color="#525252" stop-opacity="0"/>
</linearGradient>
<linearGradient id="paint1_linear_14673_34076" x1="487" y1="24" x2="375.065" y2="24" gradientUnits="userSpaceOnUse">
<stop stop-color="#D2C9C4"/>
<stop offset="0.6" stop-color="#8A7F79"/>
<stop offset="1" stop-color="#525252" stop-opacity="0"/>
</linearGradient>
</defs>
</svg>
