<svg width="24" height="24" viewBox="0 0 24 24" fill="none" xmlns="http://www.w3.org/2000/svg">
<g clip-path="url(#clip0_14673_37650)">
<path d="M0.0488281 12C0.0488281 5.3724 5.42003 0 12.0488 0C18.6752 0 24.0488 5.3724 24.0488 12C24.0488 18.6276 18.6752 24 12.0488 24C5.42003 24 0.0488281 18.6276 0.0488281 12Z" fill="#FC3F1D"/>
<path d="M13.5849 6.81392H12.4761C10.4433 6.81392 9.37407 7.84352 9.37407 9.36152C9.37407 11.0775 10.1133 11.8815 11.6313 12.9123L12.8853 13.7571L9.28167 19.1415H6.58887L9.82287 14.3247C7.96287 12.9915 6.91887 11.6967 6.91887 9.50672C6.91887 6.76112 8.83287 4.88672 12.4629 4.88672H16.0665V19.1283H13.5849V6.81392Z" fill="white"/>
</g>
<defs>
<clipPath id="clip0_14673_37650">
<rect width="24" height="24" fill="white"/>
</clipPath>
</defs>
</svg>
