<svg width="44" height="44" viewBox="0 0 44 44" fill="none" xmlns="http://www.w3.org/2000/svg">
<path d="M38.8644 13.1604C38.4588 11.665 37.2677 10.4898 35.7523 10.0895C33.0084 9.36328 22.0003 9.36328 22.0003 9.36328C22.0003 9.36328 10.9924 9.36328 8.24839 10.0895C6.73296 10.4898 5.54204 11.665 5.13638 13.1604C4.40039 15.8682 4.40039 21.521 4.40039 21.521C4.40039 21.521 4.40039 27.1738 5.13638 29.8816C5.54204 31.377 6.73296 32.5521 8.24839 32.9524C10.9924 33.6787 22.0003 33.6787 22.0003 33.6787C22.0003 33.6787 33.0084 33.6787 35.7523 32.9524C37.2677 32.5521 38.4588 31.377 38.8644 29.8816C39.6004 27.1738 39.6004 21.521 39.6004 21.521C39.6004 21.521 39.5974 15.8682 38.8644 13.1604Z" fill="#FF0000"/>
<path d="M18.4766 26.7317L27.6214 21.5222L18.4766 16.3125V26.7317Z" fill="white"/>
<path d="M38.8644 13.1604C38.4588 11.665 37.2677 10.4898 35.7523 10.0895C33.0084 9.36328 22.0003 9.36328 22.0003 9.36328C22.0003 9.36328 10.9924 9.36328 8.24839 10.0895C6.73296 10.4898 5.54204 11.665 5.13638 13.1604C4.40039 15.8682 4.40039 21.521 4.40039 21.521C4.40039 21.521 4.40039 27.1738 5.13638 29.8816C5.54204 31.377 6.73296 32.5521 8.24839 32.9524C10.9924 33.6787 22.0003 33.6787 22.0003 33.6787C22.0003 33.6787 33.0084 33.6787 35.7523 32.9524C37.2677 32.5521 38.4588 31.377 38.8644 29.8816C39.6004 27.1738 39.6004 21.521 39.6004 21.521C39.6004 21.521 39.5974 15.8682 38.8644 13.1604Z" fill="#FF0000"/>
<path d="M18.4766 26.7317L27.6214 21.5222L18.4766 16.3125V26.7317Z" fill="white"/>
</svg>
